<svg width="96" height="96" fill="none" xmlns="http://www.w3.org/2000/svg"><path d="M81 14.4v74.88M15 14.4h66M15 89.28V14.4m66 74.88H15" stroke="#B89B61" stroke-width="3" stroke-linecap="round" stroke-linejoin="round"/><path clip-rule="evenodd" d="M81 14.4H15l6-11.52h54l6 11.52v0z" stroke="#B89B61" stroke-width="3" stroke-linecap="round" stroke-linejoin="round"/><path d="M3 89.28h90" stroke="#B89B61" stroke-width="3" stroke-linecap="round" stroke-linejoin="round"/><path clip-rule="evenodd" d="M57 80.64c0-4.772-4.03-8.64-9-8.64s-9 3.868-9 8.64v8.64h18v-8.64z" stroke="#B89B61" stroke-width="3" stroke-linecap="round" stroke-linejoin="round"/><path d="M30 24.48c.828 0 1.5.644 1.5 1.44m-3 0c0-.796.672-1.44 1.5-1.44m0 2.88c-.828 0-1.5-.645-1.5-1.44m3 0c0 .795-.672 1.44-1.5 1.44m0 14.4c.828 0 1.5.645 1.5 1.44m-3 0c0-.796.672-1.44 1.5-1.44m0 2.88c-.828 0-1.5-.645-1.5-1.44m3 0c0 .795-.672 1.44-1.5 1.44m0 14.4c.828 0 1.5.645 1.5 1.44m-3 0c0-.795.672-1.44 1.5-1.44m0 2.88c-.828 0-1.5-.645-1.5-1.44m3 0c0 .795-.672 1.44-1.5 1.44m18-37.44c.828 0 1.5.644 1.5 1.44m-3 0c0-.796.672-1.44 1.5-1.44m0 2.88c-.828 0-1.5-.645-1.5-1.44m3 0c0 .795-.672 1.44-1.5 1.44m0 14.4c.828 0 1.5.645 1.5 1.44m-3 0c0-.796.672-1.44 1.5-1.44m0 2.88c-.828 0-1.5-.645-1.5-1.44m3 0c0 .795-.672 1.44-1.5 1.44m0 14.4c.828 0 1.5.645 1.5 1.44m-3 0c0-.795.672-1.44 1.5-1.44m0 2.88c-.828 0-1.5-.645-1.5-1.44m3 0c0 .795-.672 1.44-1.5 1.44m18-37.44c.828 0 1.5.644 1.5 1.44m-3 0c0-.796.672-1.44 1.5-1.44m0 2.88c-.828 0-1.5-.645-1.5-1.44m3 0c0 .795-.672 1.44-1.5 1.44m0 14.4c.828 0 1.5.645 1.5 1.44m-3 0c0-.796.672-1.44 1.5-1.44m0 2.88c-.828 0-1.5-.645-1.5-1.44m3 0c0 .795-.672 1.44-1.5 1.44m0 14.4c.828 0 1.5.645 1.5 1.44m-3 0c0-.795.672-1.44 1.5-1.44m0 2.88c-.828 0-1.5-.645-1.5-1.44m3 0c0 .795-.672 1.44-1.5 1.44" stroke="#B89B61" stroke-width="3" stroke-linecap="round" stroke-linejoin="round"/></svg>