<svg width="64" height="64" fill="none" xmlns="http://www.w3.org/2000/svg"><path d="M22.077 38h12m-12 8h12m.001-15.267a11.933 11.933 0 000 22.534M18.077 22h28m-4.517-8.57l3.835-7.67a2.003 2.003 0 00-2.686-2.683L37.657 5.6a1.997 1.997 0 01-2.557-.68l-1.357-2.035a2 2 0 00-3.328 0l-1.36 2.035a2 2 0 01-2.557.68l-5.067-2.528A2 2 0 0018.76 5.76l3.76 7.52" stroke="#B89B61" stroke-width="3" stroke-linecap="round" stroke-linejoin="round"/><path d="M19.179 28l-7.36 8.533a15.819 15.819 0 0012.533 25.464h15.44a15.819 15.819 0 0012.533-25.464L44.965 28" stroke="#B89B61" stroke-width="3" stroke-linecap="round" stroke-linejoin="round"/></svg>