<svg width="96" height="96" fill="none" xmlns="http://www.w3.org/2000/svg"><path clip-rule="evenodd" d="M24 27c6.627 0 12-5.373 12-12S30.627 3 24 3 12 8.373 12 15s5.373 12 12 12zm21 27c0-11.598-9.402-21-21-21S3 42.402 3 54v9h9l3 30h18l3-30h9v-9z" stroke="#B89B61" stroke-width="3" stroke-linecap="round" stroke-linejoin="round"/><path d="M24 33v24" stroke="#B89B61" stroke-width="3" stroke-linecap="round" stroke-linejoin="round"/><path clip-rule="evenodd" d="M72 27c6.627 0 12-5.373 12-12S78.627 3 72 3 60 8.373 60 15s5.373 12 12 12z" stroke="#B89B61" stroke-width="3" stroke-linecap="round" stroke-linejoin="round"/><path d="M54 63h6l3 30h18l3-30h9v-9a20.984 20.984 0 00-9.456-17.544L72 54 60.456 36.456A21.168 21.168 0 0054 43.2M60 15s0 15-9 15m33-15s0 15 9 15" stroke="#B89B61" stroke-width="3" stroke-linecap="round" stroke-linejoin="round"/></svg>