<svg width="180" height="82" fill="none" xmlns="http://www.w3.org/2000/svg"><path fill-rule="evenodd" clip-rule="evenodd" d="M28.91 55.145a6.496 6.496 0 005.685 3.283 7.588 7.588 0 006.55-3.778l3.153-5.452H28.596a6.486 6.486 0 00.313 5.947m26.345-.5a7.588 7.588 0 006.552 3.783h.002a6.5 6.5 0 005.687-3.283 6.49 6.49 0 00.317-5.947H52.109l3.145 5.447m11.166-7.928l-5.639-9.764H35.627l-5.639 9.764H66.42M48.51 24.845h-.6a9.184 9.184 0 00-7.93 4.578l-2.919 5.049h22.29l-2.91-5.05a9.184 9.184 0 00-7.93-4.578M78.636 45.4c0-1.951.864-3.39 2.495-4.03.736-.288 2.016-.448 3.839-.448h.96c.8 0 1.503.032 2.143.096v-1.824c0-2.335-1.184-3.135-3.87-3.135-1.12 0-2.208.16-3.296.48-.48.128-.736.128-.831-.256l-.16-.672c-.128-.383-.032-.607.351-.703 1.376-.416 2.752-.64 4.095-.64 4.095 0 5.79 1.375 5.79 4.702v10.94c0 .256-.064.32-.352.32h-1.055c-.288 0-.416-.095-.416-.32l-.064-1.087H88.2c-.704 1.12-1.824 1.695-3.391 1.695h-1.6c-1.407 0-2.687-.416-3.422-1.151-.768-.768-1.152-1.76-1.152-3.007v-.96zm2.111.704c0 .992.224 1.663.672 2.08.416.383 1.056.575 1.951.575h1.312c2.143 0 3.39-1.152 3.39-3.327v-2.655a15.931 15.931 0 00-1.919-.096h-1.791c-1.343 0-2.271.224-2.815.64-.544.416-.8 1.12-.8 2.111v.672zm13.755-17.178c0-.224.128-.352.384-.352h1.312c.256 0 .384.128.384.352V46.04c0 1.151.032 1.535.287 2.015.16.224.544.352 1.152.352h.864c.192 0 .384.032.384.352v1.087c0 .257-.096.384-.32.384h-1.216c-1.151 0-1.983-.255-2.463-.735-.512-.544-.768-1.536-.768-2.943V28.926m7.901 1.407c0-1.023.576-1.503 1.472-1.503h.128c.927 0 1.407.511 1.407 1.503v.192c0 1.024-.543 1.535-1.407 1.535h-.128c-1.056 0-1.472-.48-1.472-1.535v-.192zm.48 4.575c0-.224.128-.352.384-.352h1.312c.256 0 .383.128.383.352v15.066c0 .16-.095.256-.287.256h-1.536c-.16 0-.256-.096-.256-.256V34.908zm6.142 6.909c0-5.662 1.887-7.55 6.142-7.55 2.047 0 3.486.64 4.35 1.92h.064l.16-1.247c.032-.256.192-.384.48-.384h.768c.351 0 .447.064.447.416V55.54c0 .224-.096.352-.319.352h-1.44c-.224 0-.32-.129-.32-.352v-6.718h-.064c-.896 1.12-2.303 1.695-4.222 1.695-4.351 0-6.046-2.079-6.046-7.197v-1.504zm2.111 1.344c0 2.175.352 3.678 1.056 4.478.671.768 1.567 1.088 3.135 1.088 2.559 0 4.03-1.312 4.03-3.839v-4.734c0-2.591-1.471-4.095-4.158-4.095-1.408 0-2.24.288-2.879.96-.8.864-1.184 2.559-1.184 5.086v1.056zm14.459-8.093c0-.288.192-.512.448-.512h1.183c.288 0 .448.16.448.448v10.46c0 1.28.224 1.983.832 2.495.544.512 1.503.768 2.879.768 1.311 0 2.303-.288 2.943-.896.544-.512.735-1.088.735-2.367V34.972c0-.256.16-.416.384-.416h1.344c.224 0 .352.128.352.416V45.72c0 1.631-.48 2.847-1.408 3.647-.927.8-2.175 1.151-4.35 1.151-1.984 0-3.423-.384-4.351-1.151-.959-.8-1.439-2.016-1.439-3.647V35.068M140.469 45.4c0-1.951.864-3.39 2.496-4.03.735-.288 2.015-.448 3.838-.448h.96c.8 0 1.504.032 2.143.096v-1.824c0-2.335-1.183-3.135-3.87-3.135-1.12 0-2.208.16-3.295.48-.48.128-.736.128-.832-.256l-.16-.672c-.128-.383-.032-.607.352-.703 1.375-.416 2.751-.64 4.095-.64 4.094 0 5.79 1.375 5.79 4.702v10.94c0 .256-.064.32-.352.32h-1.056c-.288 0-.416-.095-.416-.32l-.064-1.087h-.064c-.704 1.12-1.823 1.695-3.391 1.695h-1.599c-1.408 0-2.687-.416-3.423-1.151-.768-.768-1.152-1.76-1.152-3.007v-.96zm2.112.704c0 .992.224 1.663.672 2.08.415.383 1.055.575 1.951.575h1.311c2.144 0 3.391-1.152 3.391-3.327v-2.655a15.924 15.924 0 00-1.919-.096h-1.791c-1.344 0-2.272.224-2.815.64-.544.416-.8 1.12-.8 2.111v.672z" fill="#D4B982"/></svg>