<svg width="180" height="82" fill="none" xmlns="http://www.w3.org/2000/svg"><path fill-rule="evenodd" clip-rule="evenodd" d="M59.651 48.69c-2.73 5.164-8.156 8.69-14.391 8.69H29.412v-8.69h30.24m-.002-15.157H28.013v-8.689H45.26c6.235 0 11.661 3.526 14.39 8.69m1.678 7.578a15.86 15.86 0 01-.528 4.04H31.71v-8.08H60.8c.351 1.334.528 2.687.528 4.04m21.128-8.582v14.217h-2.318l-.163-1.383c-.773 1.2-2.013 1.606-3.233 1.606-2.95 0-5.166-1.952-5.166-5.247 0-3.457 2.176-5.247 5.104-5.247 1.058 0 2.705.57 3.295 1.607V32.53h2.481zm-8.4 9.193c0 1.75 1.262 2.95 2.848 2.95 1.566 0 2.908-1.14 2.908-2.95 0-1.749-1.342-2.928-2.908-2.928-1.586 0-2.847 1.118-2.847 2.928zM94.72 36.72l-6.122 14.216h-2.725l1.871-4.352-4.007-9.864h2.889l1.525 4.332.956 2.827 1.037-2.766 1.83-4.393h2.746m8.684 10.027v-5.248c0-1.525-.834-2.684-2.42-2.684-1.525 0-2.563 1.281-2.563 2.806v5.126h-2.46V36.7h2.216l.163 1.362c1.017-.996 2.034-1.505 3.295-1.505 2.359 0 4.25 1.77 4.25 4.922v5.268h-2.481m12.569-10.027h2.379v10.027h-2.339l-.122-1.465c-.569 1.18-2.135 1.75-3.254 1.77-2.969.02-5.166-1.81-5.166-5.329 0-3.457 2.299-5.267 5.227-5.247 1.343 0 2.624.63 3.193 1.627l.082-1.383zm-6.02 5.003c0 1.912 1.322 3.05 2.969 3.05 3.905 0 3.905-6.08 0-6.08-1.647 0-2.969 1.118-2.969 3.03zm17.359 5.024v-5.37c0-1.322-.691-2.521-2.054-2.521-1.342 0-2.135 1.2-2.135 2.521v5.37h-2.482V36.7h2.299l.183 1.22c.528-1.017 1.688-1.383 2.643-1.383 1.2 0 2.4.488 2.97 1.871.895-1.424 2.054-1.83 3.356-1.83 2.847 0 4.25 1.749 4.25 4.759v5.41h-2.481v-5.41c0-1.322-.549-2.44-1.892-2.44-1.342 0-2.176 1.159-2.176 2.48v5.37h-2.481m14.062-12.854c0 1.932-2.928 1.932-2.928 0s2.928-1.932 2.928 0zm-2.704 12.854h2.481V36.679h-2.481v10.068zm13.32-1.282c-1.159 1.14-2.379 1.587-3.864 1.587-2.908 0-5.328-1.75-5.328-5.309s2.42-5.308 5.328-5.308c1.424 0 2.522.407 3.62 1.485l-1.566 1.647a3.044 3.044 0 00-2.013-.793c-1.668 0-2.888 1.22-2.888 2.97 0 1.911 1.302 2.928 2.847 2.928.793 0 1.587-.224 2.197-.834l1.667 1.627" fill="#D4B982"/></svg>