<svg width="180" height="82" fill="none" xmlns="http://www.w3.org/2000/svg"><path fill-rule="evenodd" clip-rule="evenodd" d="M81.638 49.869l-6.603-9.871h-1.838v16.375h2.168V44.16l5.612 8.406H82.3l5.612-8.406v12.212h2.167V39.998h-1.837l-6.604 9.87m19.87-9.87l-7.134 16.375h2.35l1.661-3.898h8.543l1.66 3.898h2.328l-7.111-16.375h-2.297zm1.137 2.412c.047.118.094.234.148.354l3.275 7.681h-6.824l3.253-7.68a9.83 9.83 0 00.148-.355zm22.784 11.606c-.764.355-1.801.557-2.859.557-1.602 0-6.827-.46-6.827-6.388 0-4.716 3.652-6.389 6.78-6.389 1.719 0 3.319.412 4.505 1.159l.177.111V40.85l-.064-.032c-1.413-.707-3.151-1.096-4.895-1.096-2.274 0-4.396.752-5.974 2.118-1.78 1.54-2.721 3.735-2.721 6.346 0 1.474.255 2.793.757 3.92a7.022 7.022 0 002.007 2.627c1.957 1.585 4.406 1.917 6.116 1.917 1.759 0 3.57-.388 5.099-1.094l.067-.031v-7.962h-2.168v6.454m19.539-1.357l-9.537-12.662h-1.972v16.375h2.169V43.687l9.536 12.686h1.972V39.998h-2.168V52.66m15.924-12.593l-.03-.07h-2.296l-7.135 16.376h2.351l1.661-3.898h8.542l1.66 3.898h2.329l-7.082-16.306zm-1.19 2.343c.047.118.094.234.148.354l3.275 7.681h-6.824l3.253-7.68a9.83 9.83 0 00.148-.355zM48.386 33.032c-.528 0-1.047.03-1.559.095a12.88 12.88 0 00-1.037-1.17l-9.136-9.137-9.137 9.136c-.373.374-.72.766-1.037 1.17a12.494 12.494 0 00-1.558-.094H12v12.921c0 7.124 5.796 12.922 12.922 12.922h23.464c7.126 0 12.921-5.798 12.921-12.922V33.031H48.386zm-23.464 4.52h-.69c-1.238 4.361-.143 9.25 3.285 12.677l4.126 4.125 1.68 1.682.459.46h-8.86c-5.813 0-10.543-4.73-10.543-10.543V35.411h10.669c.868.012 1.713.126 2.52.338a10.572 10.572 0 016.618 5.177 10.48 10.48 0 011.278 5.027v8.858L29.2 48.547c-2.92-2.92-3.767-7.138-2.537-10.812a8.243 8.243 0 00-1.741-.183zm11.732 2.986a12.699 12.699 0 00-1.278-2.17 12.956 12.956 0 00-6.264-4.64l.088-.09 7.454-7.454 7.454 7.454.088.09a12.957 12.957 0 00-6.265 4.64 12.699 12.699 0 00-1.277 2.17zm22.274 5.415c0 5.813-4.73 10.542-10.542 10.542h-8.86l.459-.459 1.68-1.682 4.125-4.125c3.428-3.426 4.523-8.316 3.286-12.677h-.69a8.27 8.27 0 00-1.742.183c1.23 3.674.383 7.892-2.536 10.812l-6.265 6.264v-8.858c0-1.82.464-3.533 1.278-5.027a10.573 10.573 0 016.619-5.177 10.482 10.482 0 012.52-.338h10.668v10.542z" fill="#D4B982"/></svg>