<svg width="180" height="82" fill="none" xmlns="http://www.w3.org/2000/svg"><path fill-rule="evenodd" clip-rule="evenodd" d="M40 56.24V27.51h17.602v6.309h-9.966V38.8h9.396v6.15h-9.396v11.29H40zm20.212 0V36.43h6.599v4.668c.683-1.708 1.607-2.981 2.785-3.831 1.18-.851 2.606-1.28 4.28-1.28.275 0 .556.007.837.026.281.021.562.056.852.096l-.683 6.349a7.79 7.79 0 00-1.233-.308 7.805 7.805 0 00-1.178-.095c-1.696 0-3 .522-3.926 1.561-.918 1.039-1.379 2.511-1.379 4.42v8.205h-6.954zm30.376-12.456c-.135-1.125-.563-2.03-1.287-2.714-.73-.682-1.621-1.025-2.686-1.025-1.138 0-2.048.309-2.726.933-.67.623-1.118 1.56-1.346 2.806h8.045zm6.87 3.937h-15.07c.015 1.529.409 2.707 1.18 3.537.777.83 1.868 1.246 3.281 1.246 1.065 0 1.956-.2 2.686-.595a3.958 3.958 0 001.662-1.776l5.256 2.117c-.63 1.52-1.74 2.692-3.333 3.516-1.602.823-3.558 1.24-5.875 1.24-3.455 0-6.23-.96-8.312-2.874-2.09-1.923-3.134-4.448-3.134-7.589 0-3.087 1.044-5.653 3.127-7.696 2.09-2.043 4.729-3.06 7.916-3.06 3.283 0 5.876 1.03 7.771 3.1 1.895 2.07 2.846 4.904 2.846 8.5v.334zm.958 6.874l1.454-5.345a11.595 11.595 0 003.368 2.055c1.227.476 2.458.718 3.698.718.878 0 1.547-.142 2.003-.423.462-.281.689-.69.689-1.226 0-.876-.924-1.533-2.773-1.968a36.129 36.129 0 01-1.453-.37c-2.097-.575-3.611-1.332-4.561-2.27-.945-.93-1.42-2.15-1.42-3.636 0-1.929.723-3.464 2.17-4.615 1.447-1.153 3.403-1.729 5.874-1.729 1.272 0 2.565.148 3.878.442 1.311.297 2.66.751 4.032 1.367l-1.453 4.822c-.925-.629-1.868-1.113-2.828-1.439a8.73 8.73 0 00-2.866-.49c-.797 0-1.399.128-1.807.376-.409.248-.612.608-.612 1.077 0 .704.918 1.3 2.753 1.79.423.112.738.2.946.254 2.418.69 4.1 1.506 5.049 2.437.946.94 1.42 2.205 1.42 3.798 0 2.023-.776 3.664-2.336 4.91-1.554 1.253-3.618 1.875-6.176 1.875-1.742 0-3.357-.2-4.85-.596a15.633 15.633 0 01-4.199-1.814zm20.086 1.646V25.82h6.872v10.677c0 .703-.02 1.36-.059 1.962a17.243 17.243 0 01-.175 1.628c.876-1.481 1.908-2.565 3.094-3.262 1.193-.69 2.613-1.039 4.254-1.039 1.285 0 2.423.208 3.422.617.998.415 1.814 1.005 2.439 1.781.528.663.897 1.48 1.117 2.432.221.957.335 2.384.335 4.28V56.24h-6.992V45.626c0-1.587-.261-2.733-.777-3.456-.515-.717-1.34-1.079-2.478-1.079-1.454 0-2.512.536-3.182 1.608-.663 1.071-.998 2.812-.998 5.224v8.318h-6.872zM87.341 33.01c2.009-3.788 4.833-5.235 9.742-5.147-2.065 5.33-4.954 7.314-10.672 7.211-.642-1.98-1.782-3.693-3.686-5l1.419-2.15c1.705 1.6 2.658 3.312 3.197 5.086" fill="#D4B982"/></svg>