<svg width="180" height="82" fill="none" xmlns="http://www.w3.org/2000/svg"><path fill-rule="evenodd" clip-rule="evenodd" d="M26.681 55.539l17.15 9.901a5.355 5.355 0 005.355 0l17.15-9.901a5.355 5.355 0 002.678-4.638V31.098a5.356 5.356 0 00-2.678-4.638l-17.15-9.901a5.355 5.355 0 00-5.355 0l-17.15 9.901a5.355 5.355 0 00-2.677 4.638v19.803a5.355 5.355 0 002.677 4.638zm23.783-10.163c-3.698 3.342-3.2 5.888-.764 8.584h-.007a4.28 4.28 0 011.116 2.883 4.3 4.3 0 01-8.6 0 4.28 4.28 0 011.116-2.883h-.007c2.436-2.696 2.933-5.242-.765-8.584h.01a5.878 5.878 0 010-8.753h-.01c3.698-3.342 3.201-5.888.765-8.584h.007a4.28 4.28 0 01-1.117-2.884 4.3 4.3 0 018.601 0c0 1.112-.424 2.12-1.116 2.884h.007c-2.437 2.696-2.934 5.242.764 8.584h-.01a5.878 5.878 0 010 8.753h.01zm-12.563-.085c-1.288-1.425-2.025-2.81-1.896-4.291-.13-1.482.608-2.867 1.896-4.292h-.007a4.28 4.28 0 001.117-2.884 4.3 4.3 0 00-8.602 0 4.28 4.28 0 001.117 2.884h-.007c1.289 1.425 2.026 2.81 1.896 4.291.13 1.482-.607 2.867-1.896 4.292h.007a4.28 4.28 0 00-1.116 2.884 4.3 4.3 0 108.6 0 4.28 4.28 0 00-1.116-2.884h.007zM59.603 41c-.13 1.481.607 2.866 1.895 4.291h-.006a4.28 4.28 0 011.116 2.884 4.3 4.3 0 11-8.601 0 4.28 4.28 0 011.116-2.884h-.006c1.288-1.425 2.025-2.81 1.895-4.291.13-1.482-.607-2.867-1.895-4.292h.006a4.28 4.28 0 01-1.116-2.884 4.3 4.3 0 018.601 0 4.28 4.28 0 01-1.116 2.884h.006c-1.288 1.425-2.025 2.81-1.895 4.291zm23.817-9.336v12.789c0 .845.33 1.337 1.01 1.337.47 0 .892-.164 1.314-.375l.164 2.605a7.669 7.669 0 01-2.769.54c-1.83 0-3.003-.892-3.003-3.31V31.665h3.285m16.261 12.882c0 .704.188 1.244.845 1.244.469 0 .845-.165 1.244-.376l.141 2.605c-.611.281-1.62.54-2.675.54-1.385 0-2.253-.564-2.605-1.784a5.103 5.103 0 01-3.895 1.76c-3.426 0-5.75-2.628-5.75-6.312 0-3.731 2.324-6.383 5.75-6.383 1.595 0 2.839.446 3.66 1.267v-1.055h3.285v8.494zm-3.285-4.74c-.563-.587-1.642-1.103-2.745-1.103-2.042 0-3.332 1.408-3.332 3.52 0 2.065 1.314 3.473 3.332 3.473 1.08 0 2.088-.493 2.745-1.103v-4.787zm14.478 8.753c-1.666 0-2.863-.517-3.684-1.338v1.103h-3.285v-16.66h3.285v5.42c.845-.751 2.112-1.244 3.684-1.244 3.45 0 5.773 2.628 5.773 6.336 0 3.707-2.323 6.382-5.773 6.382zm-.915-9.856c-1.103 0-2.135.516-2.769 1.15v4.716c.563.563 1.619 1.127 2.769 1.127 2.018 0 3.332-1.408 3.332-3.52 0-2.089-1.314-3.473-3.332-3.473zm14.877-2.98c3.848 0 6.617 2.769 6.617 6.5 0 3.684-2.769 6.43-6.617 6.43-3.801 0-6.57-2.746-6.57-6.43 0-3.731 2.769-6.5 6.57-6.5zm0 9.926c2.065 0 3.449-1.502 3.449-3.426 0-1.971-1.384-3.497-3.449-3.497-2.018 0-3.403 1.526-3.403 3.497 0 1.924 1.385 3.426 3.403 3.426zm9.973-5.796c0-.727-.165-1.244-.845-1.244-.493 0-1.056.235-1.244.352l-.141-2.581c.165-.164 1.385-.54 2.675-.54 1.408 0 2.323.563 2.675 1.854.587-1.15 1.479-1.854 3.074-1.854 1.15 0 2.042.423 2.206.704l-.469 2.957c-.188-.258-1.127-.634-2.253-.634-1.572 0-2.182 1.361-2.393 2.793v6.664h-3.285v-8.471m21.072 7.133c-1.268 1.033-3.074 1.666-5.163 1.666-4.623 0-6.688-2.816-6.688-6.43 0-3.66 2.535-6.5 6.477-6.5 3.731 0 5.491 2.277 5.491 5.116 0 .751-.117 1.925-.258 2.394h-8.33c.305 1.713 1.407 2.675 3.402 2.675 1.549 0 2.98-.634 3.825-1.267l1.244 2.346zm-3.027-6.71c0-.986-.751-1.831-2.417-1.831-1.76 0-2.699 1.056-2.934 2.253h5.327c.024-.118.024-.305.024-.423z" fill="#D4B982"/></svg>