<svg width="416" height="283" fill="none" xmlns="http://www.w3.org/2000/svg"><path d="M343.163 127.033c-.266-4.994 1.87-9.766 1.395-14.818a.974.974 0 00-1.047-.801.976.976 0 00-.894.969c.386 4.898-1.994 9.488-1.882 14.399.112 4.912 1.882 7.87 1.31 14.357a1.173 1.173 0 00.957 1.282 1.174 1.174 0 001.348-.861c1.394-4.676-.893-9.766-1.131-14.527h-.056zm-15.753 19.199c-3.642-4.005-4.589-6.558-5.12-12.251-.167-1.784-.385-3.57-.432-5.356a.947.947 0 00-.949-.949.95.95 0 00-.949.949c0 4.185-.405 6.977.893 11.371a14.383 14.383 0 005.191 8.064c1.144.753 2.203-.92 1.395-1.842l-.029.014zm9.066-18.682c.868.469 1.394 3.264-6.852.893a25.999 25.999 0 01-15.863-12.924c-.504-.908 1.059-1.759 1.589-.879a26.21 26.21 0 009.159 8.921c6.321 3.781 10.19 3.03 11.978 3.991l-.011-.002zm-3.638-27.149c-1.981-2.303-2.554 5.58-7.924 2.623a.92.92 0 00-.81 1.645c4.668 2.973 10.368-2.37 8.734-4.268zm0-17.887c-.285-1.858-3.754-4.09-5.831-4.423-2.078-.334-2.01 1.736-.386 2.26 1.184.363 3.488.697 4.562 2.483.93 1.535 1.782.501 1.655-.32zm-16.282-3.472c-2.139-.452-5.945 3.46-4.396 4.324.544.307 2.135-1.716 3.81-2.204 1.674-.489 1.128-2.009.586-2.122v.002zm-1.578 7.044c-1.169.386-.822 4.479.669 4.09 1.491-.39.828-4.584-.669-4.092v.002zm12.447-.683c-1.982 0-1.06 4.186-.084 4.186 1.396.081 1.828-4.188.081-4.188l.003.002zm-3.857 11.163c.711.222.893 1.701-1.395 1.395-2.288-.307-5.762-2.093-3.665-3.181 3.152-1.619 2.789-3.712 4.186-3.14 1.396.57-.882 3.292-1.871 4.073 1.896.59 2.557.722 2.75.843l-.005.01z" fill="#231F20"/><path d="M324.552 153.741c0 19.882 8.132 108.356 37.155 101.115 21.459-5.345 35.913-51.626 37.949-70.252 3.53-32.091-11.511-49.187-39.498-59.99-1.827-.698-.772 2.107-6.252 6.669-4.255 3.559-7.563 3.559-6.794 5.164 1.086 2.245 9.767-3.391 13.462-9.321 25.115 10.63 40.228 24.654 36.531 56.745-2.373 20.468-14.554 59.899-33.95 68.032-28.463 11.971-35.816-81.301-36.528-98.91 3.167-4.186 14.106-6.834 19.532-5.496a214.912 214.912 0 0013.954 48.26c1.619 3.949 4.605 11.902 6.975 15.125.475.671 1.831.112 1.522-.669-1.994-5.037-4.185-10.004-6.263-15 1.24-.544 6.25-18.132 6.069-22.421 0-.782-1.395-1.158-1.59-.334-2.068 6.794-2.093 10.896-5.401 20.398a297.188 297.188 0 01-13.198-45.611c-1.227-5.505-23.675-.837-23.675 6.496zm57.121 90.622c1.061 5.165 1.979 11.832 3.488 16.974.306 1.032-1.187 1.395-1.688.517-1.736-2.789-4.103-13.952-3.544-17.204.137-.802 1.545-1.25 1.744-.287zm-98.686-20.175a14.51 14.51 0 01-18.211 1.562c-17.361-10.744-28.784-57.499-35.13-78.831 6.042.517 15.027-3.642 19.965-7.523 3.194 8.177 19.046 40.21 25.28 47.187a.946.946 0 001.199.108.95.95 0 00.344-1.153 30.397 30.397 0 00-2.274-4.186c2.679-.112 9.556-30.477 36.208-44.412a56.813 56.813 0 006.173-2.943c1.24-.864 1.394-5.066-11.875 3.543-14.959 9.684-25.448 25.869-31.364 42.402-9.363-15.348-13.954-25.655-21.934-41.97-.741-1.533-2.012-1.394-3.266-.515-6.39 4.659-11.035 6.767-17.495 7.137-2.876.168-3.42.99-2.791 3.725 4.425 19.318 18.784 69.76 36.279 79.694 6.5 3.696 15.094 3.36 20.271-2.486.741-.838-.579-2.107-1.394-1.395l.015.056zm19.071-66.652c-18.448 31.1-6.975 68.758-1.394 101.847a.854.854 0 01-1.283.845.855.855 0 01-.378-.496c-8.567-30.542-16.24-75.971 1.296-103.375.741-1.109 2.446.023 1.759 1.179zm-51.778-42.011c0-2.122-.126-6.628-1.325-8.372a94.023 94.023 0 00-5.832-7.451c-.578-.67-1.759.154-1.396 1.005a39.53 39.53 0 005.015 7.284c1.186 1.716 1.395 6.976 1.213 9.125-.403 5.72-2.943 11.161-1.394 16.896.293 1.13 2.232.698 1.994-.446-1.255-6.07 1.842-12.013 1.815-18.07l-.09.029zm-7.799-1.757c.866-.363 1.495.864.92 1.394a15.69 15.69 0 00-5.58 13.478c.112 1.271-1.829 1.396-1.981.112-.656-5.577 2.249-13.152 6.641-14.984zm-11.651 27.776c-.823-2.301-6.404-8.539-8.273-11.245-1.869-2.707-2.791-8.372-3.015-11.804 2.791-2.874 6.628 2.986 7.884 4.605 2.791 3.501 3.223.933 3.167.683a23.01 23.01 0 00-5.98-7.297c-2.399-1.544-6.977-1.243-7.198 1.736a27.81 27.81 0 002.719 12.837 102.95 102.95 0 009.259 11.454c.699.461 1.773 0 1.395-.976l.042.007zm-1.157-29.705c-2.44-1.395-6.111-1.563-8.038.796a1.034 1.034 0 00.806 1.729c.274-.012.531-.132.716-.334a4.813 4.813 0 016.097.336c2.371 1.77 4.674 5.385 6.042 5.956 1.005.405 2.106-.683 1.394-1.543a28.394 28.394 0 00-7.017-6.938v-.002zm11.134-6.975c.544.64-.155 1.994-.922 1.618-3.472-1.736-8.873-3.086-13.001 2.789-.812 1.131-2.431-.166-1.703-1.296 4.212-6.475 13.101-5.98 15.624-3.042l.002-.069z" fill="#231F20"/><path d="M302.882 73.388c3.086 5.29 36.89.78 38.815-1.395 1.926-2.176 2.568-22.784-17.454-23.454-20.023-.67-21.948 23.846-21.361 24.849zm33.486 40.044c-6.173 7.297-14.957 3.712-19.268-4.103-3.991-7.198-5.98-21.038-6.377-29.3-.07-1.27-2.064-1.395-2.024 0 0 1.047.085 2.093.141 3.154-6.223 2.874-8.846 6.558-8.372 11.72.475 5.162 6.698 6.252 6.25 10.688-.447 4.437-11.454 4.535-13.128 12.808-1.674 8.274 5.385 5.916 5.287 11.022-.098 5.106-12.822 7.313-9.864 17.316 5.246-7.577 17.761-16.228 28.044-17.999a5.467 5.467 0 01.81-3.321c-5.177-3.989-11.288-14.677-2.972-15.347 7.505 13.952 20.447 10.659 22.979 4.298.322-.797-.893-1.578-1.464-.909l-.042-.027zm9.488-17.9c0-1.968 2.33-.992 4.506-3.183 3.279-3.293 1.981-10.017.461-12.139-2.7-3.751-4.87.965-5.582.656-2.595-1.018-3.405-4.841-3.794-6.026 7.241-3.111 5.135-22.925-10.185-27.098 9.193-3.906 21.807-3.236 28.882 7.076 7.075 10.312 0 13.533 5.956 21.04 5.957 7.508 12.112 4.701 14.874 13.102 2.763 8.4-6.222 10.729-.474 18.458 5.748 7.729 14.538 6.684 16.743 13.018 2.205 6.335-3.111 12.166.991 16.923 4.103 4.757 9.319 14.467 2.371 18.699-6.306-18.809-30.22-35.147-49.168-35.685.324 1.218.557 2.458.698 3.711a.88.88 0 01-1.647.53c-2.749-5.433-4.632-23.621-4.632-29.082z" fill="#231F20"/><path d="M238.713 98.462c-7.158-3.893-23.455-11.767-25.269-10.355-1.813 1.412 15.625 13.954 16.03 13.759 2.639-2.791 8.539-.796 9.766-.49a4.349 4.349 0 01-.527-2.914zm11.539 6.404a18.463 18.463 0 012.791 9.766c6.977 4.492 17.637 7.966 18.64 5.455 1.003-2.512-12.208-10.883-21.431-15.221z" fill="#D4B982"/><path clip-rule="evenodd" d="M62.34 109.907c6.764 0 12.246-5.482 12.246-12.245 0-6.763-5.482-12.246-12.245-12.246-6.764 0-12.246 5.483-12.246 12.246 0 6.763 5.483 12.245 12.246 12.245z" stroke="#D4B982" stroke-width="2.094" stroke-linecap="round" stroke-linejoin="round"/><path d="M57.442 102.56l9.797-9.796m0 9.796l-9.797-9.796m83.686 4.376l2.667 3.784c.205.307.545.495.914.506.369.011.72-.157.944-.45l8.537-10.802" stroke="#D4B982" stroke-width="2.094" stroke-linecap="round" stroke-linejoin="round"/><path clip-rule="evenodd" d="M147.659 108.052c6.763 0 12.245-5.482 12.245-12.245 0-6.763-5.482-12.246-12.245-12.246-6.763 0-12.246 5.483-12.246 12.246 0 6.763 5.483 12.245 12.246 12.245z" stroke="#D4B982" stroke-width="2.094" stroke-linecap="round" stroke-linejoin="round"/><path d="M99.58 96.897c-.546-11.168-.68-17.808-1.549-23.347-.308-1.924-.38-4.318-2.027-5.91-1.692-1.635-4.69-1.444-7.135-1.516a497.464 497.464 0 00-51.552 1.273c-2.325.18-5.246.182-7.015 1.56-1.828 1.426-1.54 3.623-1.491 5.456.093 4.077 1.75 41.596 1.888 43.353a.35.35 0 00-.179.228c-2.294 11.156 43.331 6.531 58.533 5.304 1.889-.153 3.917-.104 5.765-.394 5.886-.929 5.289-6.668 5.346-10.169.074-5.263-.328-10.549-.583-15.838zm-.713 15.532c-.037 2.837.308 7.558-2.566 9.016-1.55.787-3.465.64-5.802.789-11.286.718-55.224 5.557-58.772-2.335-.562-1.246.161-1.706-.359-2.045.219-7.861-.283-15.745-.595-23.609-.913-23.023-.956-22.72-.239-23.88 1.231-1.995 5.168-1.85 7.593-2.031a509.012 509.012 0 0149.032-1.258c8.002.164 8.675-.433 9.8 8.046.775 5.91 1.926 35.464 1.903 37.307h.005zm85.105-15.533c-.548-11.167-.683-17.808-1.55-23.346-.307-1.924-.38-4.318-2.028-5.91-1.692-1.635-4.69-1.444-7.135-1.515a497.397 497.397 0 00-51.55 1.272c-2.327.18-5.248.182-7.017 1.56-1.828 1.426-1.539 3.623-1.49 5.456.094 4.077 1.748 41.595 1.888 43.352a.348.348 0 00-.178.228c-2.295 11.156 43.302 6.533 58.531 5.304 1.889-.153 3.917-.103 5.763-.394 5.886-.928 5.291-6.668 5.348-10.168.078-5.263-.324-10.55-.582-15.839zm-.716 15.532c-.024 2.825.308 7.562-2.563 9.016-1.55.788-3.467.64-5.803.789-11.286.718-55.222 5.557-58.772-2.335-.56-1.246.162-1.706-.357-2.045.219-7.86-.285-15.744-.597-23.608-.912-23.023-.956-22.72-.238-23.88 1.231-1.995 5.168-1.85 7.592-2.031a509.05 509.05 0 0149.033-1.258c8.001.164 8.672-.433 9.797 8.046.845 6.371 1.919 36.019 1.908 37.306z" fill="#231F20"/><path d="M199.291 89.988c-.128-14.217.228-29.282-.418-43.373-.211-4.6-.153-9.495-1.508-13.938a14.25 14.25 0 00-6.678-8.782c-4.327-2.402-9.241-2.527-13.824-2.698-10.944-.412-88.358-.698-88.469-.697-2.293 0-52.648.754-55.398.883-6.726.324-7.967 1.159-8.959 1.406a14.674 14.674 0 00-8.83 7.818C11.84 37.67 13.26 46.009 13.51 59.408c.17 9.11.216 45.565.583 54.689.14 3.459.275 6.893.342 10.352.121 6.259.67 13.032 6.539 15.268 2.99 1.14 153.905 1.195 157.098 1.372-1.391-2.171-144.67-1.885-147.452-1.885-2.318 0-6.955-.189-8.697-.189-6.063-2.726-5.906-11.863-5.966-17.4-.905-83.487-1.267-69.418-1.446-77.503.041-3.098.456-6.18 1.235-9.178 23.77-.696 167.512-1.337 180.83-1.057 1.946 8.386 1.546 40.341 1.558 49.353.016 12.04.501 23.717-.295 36.062-.316 4.929-.066 10.364-2.318 14.912a8.848 8.848 0 01-5.36 4.714 22.12 22.12 0 01-5.702.874c-4.879.141-7.162 1.655-2.767 1.297 1.792-.145 3.907-.336 6.475-.697a13.026 13.026 0 004.144-1.115c6.514-3.277 6.189-12.902 6.64-19.678.653-9.856.43-19.74.34-29.611zm-34.3-61.898a2.089 2.089 0 01-2.078 1.956 2.2 2.2 0 01-2.091-2.003c-.157-1.442.818-3.017 2.42-2.521a2.567 2.567 0 011.749 2.568zm9.591-.152a2.08 2.08 0 01-2.077 1.952 2.2 2.2 0 01-2.091-2.003c-.157-1.445.822-3.018 2.42-2.521a2.59 2.59 0 011.748 2.572zm8.326 0a2.089 2.089 0 01-2.078 1.951 2.23 2.23 0 01-1.913-3.139 1.684 1.684 0 012.242-1.381 2.568 2.568 0 011.749 2.57z" fill="#231F20"/><path d="M153.961 45.795c-32.471-.177-64.942-.192-97.387-.256-2.416 0-2.497 2.056 0 2.069 32.467.152 64.916.344 97.387.37 2.625 0 2.625-2.17 0-2.183zM69.989 52.5c-.492.028-.946.143-1.276.323-.33.18-.512.413-.512.654 0 .241.183.474.512.654.33.18.784.295 1.276.323 21.63.37 48.499 1.623 69.639 1.2 2.574-.024 3.231-1.985.58-2.168 0-.37-49.582-1.099-70.22-.986z" fill="#231F20"/></svg>