<svg width="416" height="416" fill="none" xmlns="http://www.w3.org/2000/svg"><path d="M31.308 263.079c1.687-6.356 6.615-7.801 8.747-9.775 3.501-3.253 3.323-7.01 8.115-25.278a299.556 299.556 0 0110.247-32.449c5.96-15.266 15.25-33.248 26.714-45.018 6.293-6.46 12.192-9.443 11.077-8.041-1.554 1.958-16.443 11.726-30.422 41.283-9.009 19.048-14.769 40.41-19.689 61.379-3.035 12.933-7.738 9.216-12.162 15.249-2.066 2.818-2.742 6.295-2.935 4.887a8.427 8.427 0 01.308-2.237zm28.081-12.86c1.088 1.231 4.952 4.233 5.793 9.408.275 1.683-.03 3.122-.395 2.414a17.76 17.76 0 00-5-8.67 15.66 15.66 0 01-2.68-2.766c-1.574-2.396-.487-5.362.707-7.935 3.715-8.012 7.873-18.629 13.917-28.297 3.84-6.141 15.486-21.264 23.185-27.873a52.687 52.687 0 015.758-4.272c.862-.546 2.76-1.567 2.303-.743-.858 1.54-7.91 6.093-18.73 19.514-14.213 17.629-15.15 22.156-24.448 42.47-1.24 2.706-2.128 4.805-.41 6.75zM49.197 274.96c-.186.356-.68.488-1.133.028a4.392 4.392 0 01-1.151-1.971 20.826 20.826 0 01-.83-5.455 13.443 13.443 0 011.17-6.13 2.01 2.01 0 01.642-.603c.334-.117.763.137.83.774.095 1.858-.581 3.18-.52 5.972.078 3.765 1.49 6.43.992 7.385zm-5.472-13.645c.372-.035.743.318.661.916-.196 1.582-1.248 2.998-1.764 5.624a18.046 18.046 0 00-.245 4.764c.14.825.072 1.672-.199 2.463a.664.664 0 01-.902.122.655.655 0 01-.212-.254 4.106 4.106 0 01-.812-2.123 17.303 17.303 0 01.291-5.444c.335-1.512 1.672-5.921 3.182-6.068zm-4.877 2.992c-2.03 2.931-2 5.409-2.907 5.981a.684.684 0 01-1.009-.481 3.712 3.712 0 01-.03-2.141 15.725 15.725 0 012.218-4.605 16.284 16.284 0 013.605-3.728c.645-.325 1.486-.602 1.689.086.329 1.064-1.991 2.613-3.566 4.888zM164.57 31.903c5.527 6.934 8.1 18.791 9.068 27.646 5.08 46.524-35.72 67.879-33.12 64.597 1.833-2.312 24.548-16.484 30.146-43.49 4.172-20.113-2.601-42.441-8.453-48.603a13.118 13.118 0 00-6.862-3.802c-1.216-.284-3.579-.54-2.641-.928a9.911 9.911 0 014.218-.019 13.3 13.3 0 017.644 4.599zm-57.568 50.585c.433-.03.868-.021 1.3.028.604.098.945.286.594.52-1.06.704-8.494 1.408-12.68 8.544a13.909 13.909 0 00-1.651 4.387c-1.167 6.033 2.576 9.62-.743 14.72-2.939 4.529-8.73 4.703-10.558 9.767-1.635 4.55.583 10.03 4.18 13.745a32.408 32.408 0 007.7 5.511c2.946 1.844-6.687.449-11.672-7.088-3.343-5.036-3.529-10.183-1.898-13.701 2.505-5.408 8.237-5.626 10.587-9.625a6.44 6.44 0 00.879-4.179c-.24-2.632-2.305-7.671.971-13.93a16.158 16.158 0 0112.991-8.699z" fill="#231F20"/><path d="M111.673 91.99c.826-.502 4.625.723 5.548.963a61.428 61.428 0 0017.371 2.17c.872.07 2.851.176 2.529.915-.388.888-3.78 1.133-4.757 1.133-.113 0-.594 0-1.311-.03a16.252 16.252 0 012.067 4.163c1.633 5.052 2.891 11.016 1.141 16.022a11.7 11.7 0 01-3.132 4.906 4.37 4.37 0 01-.328.31c1.055 4.339.742 4.405.46 4.729-.145.124-.319.21-.506.248a1.135 1.135 0 01-.564-.032 1.126 1.126 0 01-.741-.801c-.02-.095-.33-1.719-.529-2.907a4.158 4.158 0 00-.264.143c-.825.434-3.657 1.257-3.369.301.496-1.646 8.248-2.877 7.671-13.532-.323-5.988-2.446-9.781-3.331-13.615-4.383-.213-12.214-1.324-16.077-3.157-3.754-1.783-.214-3.241-3.823 8.936-1.376 3.839-3.73 9.638-7.132 12.417a2.062 2.062 0 01-.435.293c-.236.102-.481.084-.557-.161-.221-.645.91-2.538 1.255-3.123a51.056 51.056 0 004.755-9.814c3.043-8.33 1.373-16.266 2.879-15.579.894.41 1.195 4.018 1.18 5.103z" fill="#231F20"/><path d="M139.009 91.302a8.88 8.88 0 002.043.5c4.287.707 8.698 1.17 12.058 4.457a11.424 11.424 0 013.344 8.173c.022.7-.041 1.4-.186 2.086-.121.462-.327.715-.546.434-.808-1.034-.26-5.616-4.644-9.658-5.121-3.886-11.165-2.578-13.587-4.458-2.708-2.099-2.814-5.2-5.728-8.531a14.97 14.97 0 00-8.473-4.84c-7.285-1.397-12.941 3.43-12.521 1.896.332-1.213 5.137-4.47 10.351-4.226 2.971.103 5.864.974 8.397 2.528a17.83 17.83 0 016.316 6.841 11.436 11.436 0 003.176 4.798zm-48.595 41.122a15.102 15.102 0 01-1.425-2.031 9.892 9.892 0 01.953-12.389 14.927 14.927 0 013.379-2.377c10.524-6.107 1.617-15.671 6.898-23.59 2.799-3.562 6.607-3.515 5.907-2.745-.701.771-3.113 1.444-4.531 4.17-2.414 4.644.158 9.742-1.094 16.305a9.767 9.767 0 01-1.755 3.945c-.354.465-.736.909-1.142 1.33a35.165 35.165 0 01-5.255 3.715c-4.175 3.181-3.609 8.336-.254 12.444 3.83 4.681 10.046 5.79 8.679 6.36-1.225.507-6.79-.854-10.36-5.137zm17.805-15.307a3.306 3.306 0 01-3.509-2.897c-.022-.498.067-1.115.528-.929.577.225.815 1.436 2.113 1.69a6.966 6.966 0 003.916-.869 18.282 18.282 0 003.586 5.879 11.734 11.734 0 006.36 3.431c.622.09 1.25.138 1.878.143 0 1.565-.048 6.237-.048 6.84-.985.537-4.475 2.287-4.387 1.18.052-.658 1.738-1.783 2.349-2.229.065-.048.056-.048.056-.048 0-.39-.065 1.194-.065-3.765a14.647 14.647 0 01-10.808-8.686 14.52 14.52 0 01-1.969.26zm10.862-16.04a1.553 1.553 0 01.037-.717.722.722 0 01.484-.362.735.735 0 01.592.126c.506.333.929.778 1.237 1.3.102.186 3.9 6.806 3.989 6.991-.798.441-1.619.838-2.461 1.189-1.857.464-2.028-.912-.483-1.995a66.26 66.26 0 01-3.395-6.532zm-1.312 6.587c-1.544.464-2.06-1.222-4.012 1.216a1.008 1.008 0 01-1.31.119 1.016 1.016 0 01-.312-.355c-.28-.893.171-1.393.812-2.123 1.95-1.95 5.624-.956 5.518.313a1.134 1.134 0 01-.696.83zm6.717-4.653a3.858 3.858 0 011.707-2.445 4.95 4.95 0 013.076-.66c1.244.434.603 1.91-.548 2.029-.491.03-.968.172-1.395.416a2.021 2.021 0 00-.83 1.349c-.422 1.731-2.324 1.3-2.095-.372.037-.024.046-.137.085-.317zm3.605 14.239a4.903 4.903 0 01-3.765 1.792c-2.662.089-5.281-2.277-6.755-4.491-.199-.661-.155-.474-.132-.897.052-.291.205-.554.432-.743 1.867-.528.708-.253 2.454-.16a8.393 8.393 0 003.548-.453c2.615-1.077 3.495-2.634 4.077-2.246.86-.165 2.416 4.289.141 7.198zm-7.539-2.378a7.84 7.84 0 001.651 1.377 3.359 3.359 0 003.33.36c1.633-.804 1.737-2.749 1.878-4.521a7.723 7.723 0 01-6.859 2.79v-.006z" fill="#231F20"/><path d="M126.884 87.055c-1.973-.615-4.183-3.243-9.889-1.803-.742.255-1.502.455-2.274.596a2.437 2.437 0 01-.83-.03c-.401-.167-.531-.676-.104-1.13 1.428-1.528 4.599-1.98 6.651-1.964 2.279.018 5.974 1.05 7.135 3 .173.246.295.525.358.82 0 .352-.431.703-1.047.511zm40.233 58.153a59.096 59.096 0 01-6.001 5.425c-.976.693-1.616.988-1.217.349 1.007-1.61 5.015-5.098 10.927-12.916a125.785 125.785 0 0012.463-20.031c11.046-23.386 10.786-52.282 3.333-71.081-4.423-11.145-7.484-12.058-6.672-16.73a17.3 17.3 0 00.371-4.294 13.008 13.008 0 00-1.801-5.992 14.33 14.33 0 00-1.652-2.218 3.313 3.313 0 00-1.443-.929 3.453 3.453 0 00-4.227 4.133c.17.715.327 1.345-.186.84a3.487 3.487 0 01-.849-2.445 3.984 3.984 0 011.001-2.453 4.695 4.695 0 012.188-1.471c-2.095-.476-3.742-1.503-5.472-.331-2.318 2.184.777 6.347.632 7.738-.036.334-.388.486-.895-.058-2.176-2.329-3.145-7.199-.482-8.973-1.432-.204-3.685-.585-4.719.632-1.96 2.325 2.294 8.718.843 8.718-.706 0-1.787-2.074-2.058-2.773a14.44 14.44 0 01-.671-2.18c-.523-2.369-.252-4.731 1.964-5.717a8.66 8.66 0 016.586.442c.323.185.104.15.463.152 1.473 0 5.074 1.062 5.613 2.142a4.702 4.702 0 012.972 1.396 14.65 14.65 0 013.915 13.768 5.715 5.715 0 00.557 3.679 77.485 77.485 0 018.55 19.962c5.697 23.11 3.085 49.487-8.73 70.21a108.374 108.374 0 01-15.303 21.006z" fill="#231F20"/><path d="M174.365 32.479c.836 1.74 2.188 2.624 1.642 2.925-.457.25-2.43-.678-3.143-3.343a8.739 8.739 0 01-.056-3.737c1.091-5.634 5.015-8.743 2.519-3.49-1.072 2.262-2.054 5.388-.962 7.645z" fill="#231F20"/><path d="M150.322 50.171c-5.238 1.42-5.178 1.3-5.303 1.707l-1.332 4.926a.53.53 0 01-.513.39.534.534 0 01-.514-.39c-1.422-5.236-1.291-5.179-1.708-5.303l-4.926-1.33a.536.536 0 010-1.03c5.238-1.42 5.178-1.3 5.303-1.706l1.331-4.926a.534.534 0 011.027 0c1.423 5.236 1.301 5.177 1.709 5.303l4.926 1.33a.536.536 0 010 1.029zm65.474 15.994c5.238-1.423 5.179-1.3 5.303-1.709l1.332-4.93a.53.53 0 01.513-.39.534.534 0 01.514.39c1.421 5.238 1.3 5.179 1.709 5.303l4.926 1.332a.531.531 0 01.281.836.53.53 0 01-.281.191c-5.238 1.421-5.179 1.3-5.303 1.71l-1.332 4.925a.53.53 0 01-.514.39.534.534 0 01-.513-.39c-1.425-5.25-1.3-5.188-1.709-5.314l-4.926-1.33a.528.528 0 010-1.014zM108.984 30.224c-5.236 1.421-5.178 1.29-5.303 1.707l-1.33 4.926a.534.534 0 01-1.029 0c-1.42-5.238-1.291-5.178-1.709-5.303l-4.924-1.33a.535.535 0 010-1.029c5.236-1.42 5.177-1.3 5.303-1.708l1.33-4.924a.54.54 0 01.515-.389.535.535 0 01.514.389c1.421 5.236 1.3 5.176 1.707 5.303l4.926 1.33a.54.54 0 01.389.514.536.536 0 01-.389.514zm108.482 70.713c.427-.3.929-.301 1.17.141.165.419.214.875.143 1.32a6.224 6.224 0 001.132 4.237 3.796 3.796 0 006.54-3.596 3.95 3.95 0 00-2.748-2.509 7.053 7.053 0 00-3.971.416c-2.44.813-1.657-2.446 1.538-3.53a6.7 6.7 0 017.539 2.841 7.166 7.166 0 01.149 7.751 7.174 7.174 0 01-6.989 3.354c-5.831-.771-7.891-7.716-4.503-10.425zM104.548 58.134a4.299 4.299 0 00-2.642.048 16.94 16.94 0 01-.49.169c-.812.271-1.029-.581-.5-1.207a3.859 3.859 0 014.887-.916 4.77 4.77 0 01-1.238 8.934 4.71 4.71 0 01-5.38-3.193A4.317 4.317 0 0199 60.26c.057-.357.169-.703.331-1.027.708-1.413 1.623-1.335 1.623-.388a5.14 5.14 0 00.472 2.84 2.607 2.607 0 001.689 1.274 2.519 2.519 0 002.837-3.593 2.523 2.523 0 00-1.403-1.232zm94.086-24.194c.086.22.111.458.074.69-.123 1.601.771 3.03 2.245 2.925a1.967 1.967 0 001.631-2.816 1.964 1.964 0 00-.875-.898 3.311 3.311 0 00-2.511.038c-.468.222-.852.025-.717-.52a2.81 2.81 0 013.474-1.31 3.73 3.73 0 012.564 3.755 3.687 3.687 0 01-7.292.548c-.312-1.806 1.022-3.083 1.407-2.411zm-86.64 176.949c10.153.223 36.355.227 44.658-5.548 0 0-.946-15.078.897-23.163 2.149-9.429 6.813-25.289-5.349-38.423-13.24-14.302-13.599-19.183-13.599-19.183l-5.869 3.157s2.708 12.631-16.247 5.416l-17.146 7.218s19.401 13.541 5.87 41.978l-.907 27.072a23.381 23.381 0 007.692 1.476z" fill="#D4B982"/><path d="M114.89 136.753c.185-.803 2.134.033 5.605.943 3.253.855 8.27 1.8 11.145.104a5.675 5.675 0 001.3-.962 7.045 7.045 0 002.521-4.359c.139-1.172.158-2.354.055-3.529.047-.758.795-.892 1.284.557a7.48 7.48 0 01-.717 6.209c-3.145 5.238-8.407 5.537-14.39 4.087a25.68 25.68 0 01-5.2-1.735c-.526-.249-1.73-.79-1.603-1.315zm25.269 40.178c.462-.743 4.272-8.045 4.974-8.812.174-.218.389-.401.631-.539.455-.185.886.186.743.916-.278 1.356-.685 1.893-4.359 8.633-.572 1.052-1.858 3.412-2.6 2.454-.413-.541.306-2.091.611-2.652zM34.81 313.052c.964-4.297 5.2-11.227 7.576-14.503a5.034 5.034 0 011.934-1.915c2.385-1.271 4.188-.048 5.793.594a55.02 55.02 0 011.68.849 1.874 1.874 0 012.293-.245c6.601 4.135 20.344 2.043 27.534.349 11.516-2.725 19.072-14.625 19.852-25.948.929-13.333-4.038-27.304-.423-40.432.423-1.538 6.746-20.257 8.934-19.689 12.391 3.247 26.589 4.476 38.915.793a20.257 20.257 0 004.311-1.709c.401-.542.011-1.3.199-2.217.031-.197.098-.386.198-.558.166-.185.5-.167.688.247.343.871.513 1.8.501 2.736.093 1.189.359 1.373 3.312 6.687 7.801 14.037 16.923 27.007 20.569 42.877 7.079 30.811-.758 70.271-32.354 84.289-1.661.743-19.212 7.729-20.881 5.587-3.065 1.425-3.427 1.438-3.569 1.888-.176.704 3.115 9.628-.328 11.766a3.05 3.05 0 01-2.512.236c-4.872-1.32-7.243-14.213-7.907-19.25a4.625 4.625 0 013.208-5.151c.186-.067 2.305-.869 4.04-1.3a1.768 1.768 0 01.251-1.403 1.78 1.78 0 011.202-.768c14.809-2.255 26.269-19.901 29.458-33.402a24.512 24.512 0 001.3-7.086 60.693 60.693 0 00-1.575-24.591 92.208 92.208 0 00-8.492-18.457c-.743-1.359-6.785-10.199-7.097-5.303-1.179 18.575-.604 39.433-12.785 54.937-12.654 16.106-34.436 19.993-53.246 14.605-1.577-.451-12.398-2.923-17.57-5.585-.087-.03-3.807-1.291-3.9-1.311a.645.645 0 00-.613.226c-.208.208-3.715 7.653-7.22 8.162-1.946.271-4.26-1.624-3.276-6.005zm139.696-15.625c.089.752.557.929.877.698 1.781-1.237 2.199-12.259 2.132-14.502-.022-.795-.282-3.028-1.046-3.238-.236-.065-.494.037-.642.472-.52 1.529-.037 2.184-.453 7.729-.365 4.857-1.108 6.815-.868 8.841zm-55.228 43.263c-1.943 1.007-3.147 1.527-4.302 2.043a2.224 2.224 0 00-1.274 1.633c-.227 1.486 2.812 16.956 6.246 17.851.05.005.101.005.151 0h.052a1.14 1.14 0 00.202-.468c.594-2.474-1.09-7.935-1.14-8.501a3.34 3.34 0 012.028-3.434c.29-.145 2.494-1.158 2.812-1.301l-4.775-7.823zm-5.632-36.677c.069.255.295.429.708.311a5.325 5.325 0 001.188-.5 22.937 22.937 0 007.35-10.106c.292-.792.721-2.827.047-3.254a.505.505 0 00-.537.018c-1.144.665-1.048 4.189-5.701 9.605-1.484 1.543-3.285 3.087-3.051 3.926h-.004zm-76.119 12.259c.037.028.074.104.104.114 0 0 .032.018.032.037-.558 0 .993.873 4.883-6.096.18-.368.389-.721.624-1.057a3.424 3.424 0 014.272-.929c.65-1.593 2.16-5.303 3.434-8.406a26.37 26.37 0 00-4.19-1.312 2.12 2.12 0 00-1.621.689 76.222 76.222 0 00-5.54 9.001c-.597 1.172-3.144 6.195-1.998 7.967v-.008z" fill="#231F20"/><path d="M94.094 141.565c-19.579 9.163-36.658 51.161-41.16 63.013-3.327-18.961 1.07-31.11 12.041-45.236a73.15 73.15 0 006.275-7.974c3.583-6.293 3.261-14.991 9.34-21.653 5.426 12.281 13.504 11.85 13.504 11.85zm53.983-49.604a33.624 33.624 0 01-3.274-.708 39.241 39.241 0 0120.164 2.105c-1.226 2.717-4.087 8.663-6.687 11.248a11.314 11.314 0 00-10.203-12.645zm-45.294 93.972l-.914 25.183c1.3 0 .186-.236 5.83 1.464a55.787 55.787 0 00-8.7 44.669c-11.434-.041-23.702-5.895-33.855-21.57 8.2-19.25 31.286-44.617 36.602-50.18a.605.605 0 01.312-.179.604.604 0 01.725.613zm54.286 21.532l2.436-1.462c-.285-4.086-.357-8.2-.294-12.294.221-14.287 2.35-14.226 3.473-20.74 1.096-6.367-.819-13.266-.783-18.268.014-2.229.813-1.815 5.707-6.757a125.552 125.552 0 0020.072-27.618c3.573 13.931-2.588 25.742 2.349 37.148 2.333 5.398 6.86 9.473 10.606 13.994 14.449 17.48 19.798 46.621.31 60.201-7.974 5.557-17.043 8.152-25.777 11.516a322.24 322.24 0 00-18.099-31.35v-4.37z" fill="#D4B982"/><path d="M296.944 385.573c.423 2.045 3.064 7.347-1.963 10.025-5.492 2.993-12.89-2.149-9.568-10.252.183-.458 1.547-3.021 0-2.62-3.78.974-5.728 10.984 1.432 15.296 7.477 4.454 16.887-3.222 13.392-11.459-1.876-4.343-3.744-3.171-3.293-.99z" fill="#231F20"/><path d="M290.957 390.785c3.407 1.281 3.478-4.77 3.844-7.074.55-3.353 1.048-6.705 1.591-10.026.286-1.805-2.55-2.034-2.865-.231a4172.35 4172.35 0 00-2.091 13.063c-1.234-4.469-2.491-8.923-3.681-13.407-.231-.888-1.719-.902-1.675.088.15 2.79 1.775 16.42 4.877 17.587zm-58.165-3.092c.761-4.552 1.464-9.116 2.22-13.68a1.313 1.313 0 00-1.114-1.373 1.32 1.32 0 00-1.478.972c-.602 3.64-1.19 7.278-1.79 10.913-.632-2.292-2.38-10.025-3.495-11.533a.767.767 0 00-.349-.239.767.767 0 00-.788.196.765.765 0 00-.196.374c-.387 2.034 2.034 10.941 2.678 13.42 1.003 3.958 3.537 5.611 4.312.95zm18.814-170.773c3.711-.183 2.863-6.518-1.805-6.574-4.669-.057-74.48-.072-80.695 0-5.33 0-3.968 6.788 0 6.746 27.21-.33 55.536 1.128 82.5-.172z" fill="#231F20"/><path d="M234.223 383.065c-.529 1.444 1.633 3.467 1.763 6.889.386 10.226-14.238 6.79-10.485-3.193 1.031-2.779 0-6.031-2.078-3.008a10.698 10.698 0 002.865 14.097c7.005 4.599 14.853-2.091 11.917-11.459-1.361-4.17-3.512-4.606-3.982-3.326zm41.537-47.738c1.4 7.265 3.379 21.484 5.73 29.391.229.775 2.047.366 1.961-.329-.859-6.705-3.938-22.519-5.299-29.721-.388-1.877-2.746-1.166-2.392.659z" fill="#231F20"/><path d="M377.93 257.023c-37.24-5.397-76.257-14.05-113.151-18.533-1.633-6.919-1.95-14.939-8.594-19.064-3.325-2.049-4.612-.472-2.55 1.032 7.16 5.255 6.36 9.724 8.136 17.902-12.104-.128-58.124.43-73.447 1.303-1.648-7.002-2.265-14.924-8.067-19.75-3.638-3.023-4.211-.831-2.863.772 6.702 7.633 5.384 8.876 7.735 18.781 32.234 135.691 30.468 130.794 31.925 130.794 42.968 1.36 87.156-.456 130.24-.745a1.427 1.427 0 001.233-.291 1.43 1.43 0 00-.685-2.518 1.44 1.44 0 00-.649.046c-35.006.156-75.911 1.144-128.749.945-2.736-12.266-5.286-24.064-8.265-36.279 33.989 1.545 105.515-.774 138.618-1.118 2.521 0 3.037 0 4.194-2.349 9.855-19.61 18.78-47.022 26.973-67.935a2.164 2.164 0 00-2.034-2.993zm-115.573-15.562c.631 3.036 1.29 6.087 2.121 9.052.5 1.79 3.007 1.003 2.719-.758-.487-2.866-1.115-5.643-1.774-8.449 35.248 4.983 71.314 12.044 106.533 17.941-15.012.366-58.402 1.761-60.974 1.432-37.568-5.412-75.265-12.449-112.748-18.619 21.31-.606 43.036.23 64.119-.592l.004-.007zm-52.727 87.656l-20.505-85.823c39.179 7.292 81.184 14.452 119.783 20.468-4.541 19.45-11 42.474-15.412 63.953-18.209.206-62.667 1.065-83.879 1.409l.013-.007zm140.895-2.034l-54.843.602c3.136-12.074 13.365-49.442 16.615-63.936 20.653 0 43.054-.688 63.09-1.19-7.301 18.813-16.325 46.269-24.875 64.531l.013-.007zm-1.86 58.259a7.23 7.23 0 01-2.25 9.568c-4.297 2.764-13.392-.443-7.935-11.629.288-.588-.501-1.282-1.031-.831a9.358 9.358 0 00-3.147 6.441 9.36 9.36 0 002.329 6.78c6.208 7.033 17.629.621 15.628-8.666-1.39-6.06-5.229-4.645-3.594-1.663z" fill="#231F20"/><path d="M315.42 283.494c2.845.844 20.797-.172 24.135-.287l-5.729 19.337c-3.969.071-23.591-.184-26.211 1.001a.787.787 0 000 1.433c2.278.929 21.869.171 25.448.112-.743 2.607-5.199 17.103-5.227 18.894a1.055 1.055 0 00.327.73 1.041 1.041 0 00.748.286c1.309-.035 1.294-1.174 6.746-19.956 6.263-.096 12.512-.211 18.749-.344 1.432 0 1.432-2.521 0-2.506-5.986.069-11.975.183-17.962.285a1228.892 1228.892 0 005.571-19.366l20.481-.671c1.621 0 1.434-2.563-.227-2.507l-19.538.658a112.81 112.81 0 003.439-13.792c.1-.646-.844-1.131-1.161-.445a124.688 124.688 0 00-4.74 14.323c-5.126.183-20.84 0-25.008 1.433a.764.764 0 00-.2 1.141.762.762 0 00.359.241zm29.404 106.031c1.219-3.639 3.581-12.745 3.238-16.799a1.431 1.431 0 00-2.177-.779c-.25.169-.44.412-.543.695-.733 3.954-.903 7.935-1.904 11.845-1.348-4.139-2.38-8.363-3.609-12.546-.216-.745-1.204-.357-1.234.302a44.307 44.307 0 003.662 17.187 1.428 1.428 0 001.254.844 1.436 1.436 0 001.313-.749zm-47.509-108.94c-9.165-.994-18.361-1.66-27.557-2.38a97.972 97.972 0 000-17.533.67.67 0 00-.641-.466.672.672 0 00-.64.466 92.996 92.996 0 00-1.432 17.374l-34.274-2.865a183.293 183.293 0 00-3.281-19.106c-.172-.703-1.432-.788-1.432 0 .256 6.3.883 12.579 1.877 18.805-10.315-.858-18.78-1.603-29.248-1.889-.916 0-.888 1.26 0 1.432 10.618 1.433 19.04 2.197 29.675 3.079 1.109 7.944 2.217 15.898 3.324 23.861-7.735 0-17.819-.367-25.052.801-.743.132-1.001 1.348-.099 1.434 6.331.773 18.277.317 25.51.344.5 3.508 2.175 19.438 3.535 21.656.346.573 1.434.746 1.606 0 .659-2.38-1.862-17.602-2.406-21.584l29.146.472c-.244 6.265-.478 12.529-.701 18.791.035.297.177.571.401.769a1.216 1.216 0 001.621 0c.223-.198.366-.472.4-.769.314-6.262.624-12.526.93-18.791l22.673.888c1.719.071 1.547-2.591-.156-2.679-7.459-.354-14.921-.645-22.387-.873.322-7.019.647-14.037.974-21.054l27.597 2.29c1.584.107 1.613-2.301.037-2.473zm-31.306 21.169a1183.33 1183.33 0 00-29.622-.43l-3.307-23.633 33.8 2.865c-.296 7.058-.588 14.124-.873 21.198h.002zM377.08 400.94c-113.955.044-230.599-.829-343.664.573-1.432 0-1.574 2.38-.071 2.38 113.738-.331 229.682.129 343.637 0a1.478 1.478 0 00.098-2.953z" fill="#231F20"/><mask id="a" style="mask-type:alpha" maskUnits="userSpaceOnUse" x="208" y="152" width="178" height="109"><path d="M219.327 245.605l-10.499-1.969 5.906-69.556 31.497-19.686 89.898-1.969 36.747 30.841L386 234.449l-16.405 24.936-58.401 1.312-38.715-5.906-53.152-9.186z" fill="#C4C4C4"/></mask><g mask="url(#a)"><path d="M366.97 218.701c0 41.676-33.785 75.462-75.462 75.462-41.676 0-75.462-33.786-75.462-75.462 0-23.436 3.281 5.249 27.56-7.219 19.686 3.282 40.028-5.905 68.244-20.342 19.686-8.53 40.684-18.373 40.684-18.373 10.663 13.014 14.436 27.797 14.436 45.934z" fill="#F7F7F7"/><path d="M216.702 203.608l-.656 8.531 13.124 13.124 34.778 2.624 34.778-7.874 57.089-34.778-2.625-11.155-2.624-.657-1.969-1.968-5.906-8.531-5.249-1.968-5.25-4.594-5.249.656 1.968 2.625v1.313l-.656 1.312-3.281-.656-1.312-1.969-2.625-.656-11.155 2.625-11.156 2.625h-3.281v-2.625l-.656-.656-3.281-.657-3.937 1.313-1.312 1.968.656 3.281-9.843 2.625 1.312 7.874 1.969.657 3.281-1.969 3.937-.656 1.313 3.937-.657 1.969-1.968 1.312h-4.594l-1.312 2.625 2.625 11.811h-2.625l-13.124 2.625-3.937 1.312v1.313l.656.656 1.313 1.969-1.313 2.624-3.281 1.969h-3.937l-1.968-.656-1.313-1.969 1.313-3.281v-1.312l-3.938-.656-10.499.656-.656-5.25 3.281-7.874h5.25l1.312-2.625-.656-5.249h-2.625v-.657l3.281-9.842v-5.25l2.625-1.969 1.968-3.281v-3.281l-2.624 1.313v-1.313h-1.969l-3.281 1.969-1.969 2.625-4.593 1.968-5.249 5.25v2.625l-3.938 2.625-1.968 3.28-1.969 1.969-6.562 11.812-3.281 12.467z" fill="#F7F7F7"/><path d="M330.922 155.263l-.256.292c-.009.005-.008.007-.043.025-.109.053-.359.154-.822.277-.939.25-1.738.344-2.498.444-.456.06-.779.169-1.03.372a1.039 1.039 0 00-.287.366c-.062.132-.08.347-.08.347v.277l2.005 2.342c.13.346.259.65.306.841a.653.653 0 01-.03.423c-.081.06-.189.151-.211.162-1.531.128-1.692.004-2.357-.326-.387-.197-.825-.812-1.027-1.255-.347-.759-.969-1.24-.969-1.24l-.052-.042-.058-.034c-1.219-.693-2.933-.612-4.678-.308-1.766.303-3.971 1.039-4.493 1.24h-.003c-.28.109-2.383.805-3.348 1.054-1.057.271-1.858.541-2.445.694-.74.195-5.123 1.499-6.796 1.995-1.619.479-2.599.651-2.626.655-1.188.118-1.943.071-2.363.003a2.438 2.438 0 01-.406-.097c-.065-.023-.019 0-.019 0l-.024-.016a.54.54 0 01-.009-.067l.003-.033.012-1.757v-.025s-.002-1.01-.917-1.504c-.665-.363-1.451-.463-2.69-.521h-.003c-1.279-.057-2.57.055-3.302.213-.665.146-1.999.51-3.017 1.645-.502.559-.742 1.1-.843 1.519-.102.42-.052.789-.052.789l-.01-.088s.056 1.013.135 1.794v.003c.032.307.214.449.345.661-.099.049-.039.028-.177.091-.666.305-1.762.741-3.442 1.231-3.227.944-5.334 1.121-5.334 1.121l-.737.064.058.731c.041.535.239 1.699.431 2.823.191 1.125.373 2.144.373 2.144.002.011.082.502.18 1.066.1.571.203 1.164.291 1.499.136.53.448 1.499.464 1.55 0 0 .219.879 1.085 1.285.8.375 1.953.444 3.177-.033h.003c1.157-.454 1.638-1.093 2.069-1.593.432-.497.566-.646.59-.673.005-.005.669-.606 1.44-.347.803.274 1.5 1.438 1.507 1.449l.046.095.028.046s.372.793.434 1.349c-.082.122-.263.347-.697.679-.835.634-1.314.558-1.975.503-.659-.058-.936-.15-1.4-.055l.11-.012-1.104.058-.033.003c-1.296.184-2.084.703-2.103.715-.537.325-.856.862-1.04 1.444-.186.589-.263 1.256-.275 1.983-.024 1.454.207 3.155.517 4.803.541 2.883 1.184 4.939 1.375 5.574-5.404.723-11.525 1.917-14.972 2.808h-.004c-1.854.48-2.888.993-3.5 1.447-.306.227-.504.44-.633.627-.066.097-.069.14-.103.229-.47.762-.467 1.558-.227 2.056.244.505.661.767.661.767l.079.049.086.027s.826.258 1.024 1.209v.003c.161.773-.88 1.666-.88 1.666l-.019.013-.018.015s-1.58 1.311-3.956 1.715c-1.284.219-2.124.33-2.742.268-.618-.063-1.067-.257-1.77-.81-.459-.364-.477-.659-.36-1.091.116-.433.497-.928.797-1.142 1.022-.732 1.523-1.458 1.728-1.977v-.003l.003-.003c.2-.523.07-1.011.07-1.011l-.055-.21-1.067-.972-.049-.036c-.981-.65-2.353-.854-3.925-.942-1.572-.088-3.336-.013-5.007.122-2.92.237-4.889.588-5.506.692-.105-.635-.406-2.274-.345-3.747.036-.877.139-1.478.226-1.848.088-.37.138-.46.138-.46l.018-.037.101-.292.003-.009s.693-2.116 1.617-3.445l-.147-.092.153.089s.531-.781 1.266-.853c1.012-.098 1.062.2 1.883.295 1.04.125 1.705.066 2.164-.067.23-.066.406-.154.541-.249.123-.086.228-.218.251-.247 1.479-1.179 2.136-2.699 2.14-2.708.503-1.234.523-2.457.367-3.432a6.227 6.227 0 00-.334-1.264c-.136-.351-.259-.611-.483-.856v-.003h-.003c-.587-.638-1.574-1.341-1.617-1.371h-.003a2.068 2.068 0 00-.731-.356c-.369-.094-.909-.013-1.452.192.091-.652.139-1.304.459-2.078.475-1.147 1.533-3.202 1.556-3.246l.012-.028.003-.006c.024-.041 1.548-2.609 2.216-4.359.67-1.749.667-3.14.667-3.14v-.252l-.162-.201-.612-.78c-.226-.289-.375-.487-.516-.67 1.194.246 2.164-.265 2.164-.265l.031-.018.033-.028c1.736-1.307 2.687-3.521 2.687-3.521l-.009.025 1.651-3.332-1.611-2.602-.318-.06s-.093-.017-.135-.019a1.19 1.19 0 00-.119.003 2.428 2.428 0 00-.302.049c-.253.053-.64.155-1.287.375-.943.319-1.246.506-1.587.679l-.461-.685-.141-.144-.003-.003c-.004-.003-.083-.074-.132-.106a1.006 1.006 0 00-.162-.089 1.444 1.444 0 00-.406-.091c-.309-.029-.709 0-1.327.14-1.355.307-2.901 1.158-3.732 2.26a6.093 6.093 0 00-.676 1.084c-.037.082-.027.083-.052.153-2.469 2.11-4.469 2.999-4.506 3.015-.717.131-1.201.484-1.201.484l-.012.009-.013.007c-2.214 1.862-4.771 4.885-4.771 4.885l.143-.128s-.133.105-.198.186a1.79 1.79 0 00-.199.314c-.14.27-.173.454-.236.706a5.068 5.068 0 00-.079.372c-.02.117-.066.164-.015.447.007.042.027.012.036.049-1.216 1.583-1.843 2.263-1.935 2.345-.01.002-.091-.039-.091-.039l-.058.006-.059.015c-.356.103-.58.26-.834.408-.254.149-.465.284-.465.284l-.122.079-.086.119c-.69.971-2.152 3.419-2.317 3.694a2.275 2.275 0 00-.208.113l-.097-.037-1.498.835-.101.164a75.563 75.563 0 00-9.718 25.134l-.034.168.104.395-.302.68-.013.088a76.47 76.47 0 00-1.125 13.1c0 2.911.164 5.78.483 8.61l.003.006.184 1.499.003.003a75.587 75.587 0 009.901 28.582l.459.77v.006c13.415 22.059 37.744 36.799 65.519 36.799 40.046 0 72.928-30.651 76.279-69.693l.015-.177-.266-.646.355-.593.012-.177c.107-1.649.165-3.316.165-4.995 0-6.832-.901-13.462-2.595-19.764l-.04-.146-.456-.576.141-.561-.055-.188c-2.568-8.838-6.86-17.231-12.228-24.428l-.119-.161-1.486-.624-.629.447-.431.29c-.109-.136-.172-.197-.275-.329a78.672 78.672 0 01-.988-1.295l-.021-.03-.025-.028c-1.543-1.691-2.526-3.086-2.757-3.408l.055-.088-.455-1.392-.031-.052c-.436-.842-1.233-1.649-1.941-2.321a24.088 24.088 0 00-1.33-1.172l-.021-.019-.022-.018s-.847-.612-1.611-.911a4.85 4.85 0 00-1.467-.307l-.367-.015-.076.091c-1.888-1.337-6.343-4.867-6.343-4.867l-.11-.088-1.459-.445zm.34 1.651l.416.125c.17.137 5.105 4.112 6.859 5.263l.557.359.44-.527c.196.023.38.024.669.137.396.155 1.257.722 1.284.74.024.019.569.461 1.217 1.075.655.622 1.375 1.428 1.629 1.907l.193.588-.23.359.285.402a47 47 0 003.124 3.872s.463.624 1.012 1.328c.476.611.971 1.219 1.397 1.653-.416.17-1.005.385-1.807.6-1.655.445-3.252 1.185-3.252 1.185s-1.321.429-.82 1.502c.503 1.075 1.248 1.593 1.248 1.593s1.055 1.022 1.094 1.797c.034.779-.296 1.135-1.134 1.596-.834.463-1.599.554-1.599.554s-1.992.356-2.977-.573c-.986-.927-1.168-2.464-1.168-2.464s-.076-1.299-1.712-1.854c-1.636-.556-3.644.63-3.644.63s-1.58.833-3.274 1.925c-1.695 1.093-4.892 2.432-6.899 3.134l-.379.292.376-.289c-.831-.764-5.153-5.866-5.995-7.06-.842-1.197-.967-1.47-1.116-1.87-.148-.4.253-1.3.615-1.721.355-.419.774-.503 1.638-.314.864.188 1.431.567 2.8.125 1.371-.438 1.437-1.467 1.541-2.516.107-1.049-1.159-3.272-2.17-4.343-1.011-1.07-2.441-1.239-3.433-1.176-.989.064-1.554.778-2.125 1.094-.568.314-1.644.629-2.127.42-.484-.212-1.222-.421-2.042-1.87a68.615 68.615 0 01-1.29-2.382c.312-.091.532-.161.901-.256a46.645 46.645 0 003.516-1.108v.003c.277-.107 2.651-.897 4.206-1.164h.003c1.549-.27 3.086-.159 3.635.131.075.074.393.376.516.646.282.617.773 1.496 1.709 1.968h.003l.004.003c.673.333 1.448.611 3.148.472.056-.001.096.001.153-.009.096-.018.2-.047.312-.098.223-.101.478-.273.792-.566l.107-.101.061-.128a2.302 2.302 0 00.131-1.514c-.108-.432-.277-.772-.397-1.111l-.046-.128-1.324-1.551c.672-.088 1.392-.171 2.29-.411.523-.138.851-.264 1.079-.374zm-80.752.709l1.034 1.532.599-.332s.548-.269 1.296-.569c-.427.938-1.123 2.369-2.116 3.597 0 0-.556.82-.987.618-.43-.198-.933-.215-1.351-.128-.418.089-1.72.519-2.898 2.096-1.175 1.576-1.311 2.76-.679 3.112.607.339 1.471-.077 2.033-.545l1.312-.225c-.004.022-.003.06-.006.076-.039.139-.231 2.023-2.418 5.799-.549.948-1.257 2.354-1.59 3.031l.003.018-.015-.021c-3.551.655-6.196 1.476-7.098 1.818-.906.341-.924.122-.924.122-.313-.368.648-1.517.648-1.517s.974-1.324 1.358-2.54c.289-.911-.604-1.044-1.067-1.054a2.747 2.747 0 00-.26.006c-1.127.179-1.938.714-2.87 1.834-.723.868-1.162 2.056-1.327 2.686-.106.396-.287.762-.287.762s-.136.245-.67.478c-.618.269-1.825.588-1.825.588s-.803.066-1.385-.223c-.187-.092-.531-.069-.831-.024l.061-.046.168-.113c.089-.058.206-.119.187-.112l.339-.101.15-.246s1.665-2.76 2.311-3.695c.072-.045.129-.082.281-.171.089-.052.107-.057.199-.103l.241.341.621-.539s.835-.744 2.619-3.137l.007-.012.528-.634-.51-.338c.008-.035.012-.063.021-.101.049-.196.157-.467.113-.383.02-.039.019-.036.022-.04l.046-.055s2.547-2.976 4.579-4.69c.004-.003.215-.172.633-.22l.104-.009.097-.042s2.309-.966 5.053-3.363l.199-.17.046-.256s-.016.019.058-.14c.074-.16.224-.432.514-.817.442-.586 1.953-1.493 2.876-1.702.459-.104.654-.104.758-.101zm42.131 3.704c1.175.055 1.737.173 2.045.341h.003c.059.032.14.285.144.296l-.013 1.65.004-.061s-.028.259.045.561c.073.299.303.751.786.962.05.026.099.053.208.092.155.054.37.111.66.158.581.094 1.46.142 2.77.009h.027l.028-.006s1.116-.196 2.824-.7c1.673-.497 6.226-1.843 6.75-1.98.037-.01.097-.03.135-.04.193.398.456.926 1.115 2.047 1.346 2.302 3.683 3.191 4.693 3.085.883-.091 2.401-.505 2.992-1.154.588-.65 1.18-.567 1.18-.567 1.284-.081 1.598.987 2.654 2.498 1.052 1.511.403 2.686.403 2.686-.699.923-1.481.735-2.198.588-.538-.112-.593-.175-1.216-.295-1.939-.254-2.589 1.175-2.59 1.175-1.39 2.141.251 3.692.251 3.692s3.674 4.903 6.472 7.925c-2.116.724-4.861 1.642-4.861 1.642s-3.734 1.374-6.19 1.708c-2.453.332-2.996-.021-3.329-.353-.338-.332.055-1.498.055-1.498s1.004-2.04.52-3.098c-.484-1.058-3.647-1.334-3.699-1.334-.06 0-3.447-.391-6.618 1.383-2.817 1.573-3.186 2.43-3.186 2.43s-.896 1.39.168 2.766c1.2 1.557 2.794 1.699 2.794 1.699s1.517.118 1.871.564c.356.443.113.926.113.926s-.5 1.37-3.31 1.943c0 0-4.729 1.383-13.542 2.632-1.758-6.328-1.871-10.313-1.871-10.313-.142-1.314.058-1.813.706-2.169.248-.102.619-.22 1.119-.292l1.07-.052.018-.003c.182.011.37.019.572.033.166.01.126.01.434.037h.003a4.767 4.767 0 001.675-.153c.347-.082.66-.189.914-.332.629-.349 2.354-1.288 2.235-3.204-.116-1.914-1.648-4.184-2.901-4.964a3.125 3.125 0 00-.997-.393h-.006a3.752 3.752 0 00-2.002.167 3.224 3.224 0 00-.804.418c-.901.666-1.258 1.526-1.807 1.8-.41.202-.949.604-1.541.712a1.486 1.486 0 01-.608-.012c-.824-.195-.864-2.031-1.217-4.103a533.003 533.003 0 00-.476-2.765c.602-.062 1.953-.195 4.649-.984 1.74-.507 2.906-.967 3.647-1.307.741-.339 1.101-.59 1.101-.59l1.149-.82-1.33-.478s-.196-.009-.232-.359c-.073-.722-.132-1.73-.132-1.73l-.003-.043-.006-.046s-.015.002.03-.185c.046-.188.163-.49.511-.878.682-.76 1.674-1.06 2.225-1.181.488-.106 1.784-.233 2.917-.183zm-62.077 41.663c-4.032-.021-1.889-3.152-1.889-3.152s.949-1.656 1.116-2.613c0 0 .332-2.588-2.113-2.419-2.446.166-2.925 2.291-2.925 2.291s-.166 1.186-.132 2.062c.032.88-.003 2.738-1.103 3.795-1.096 1.056-2.275.731-2.275.731s-1.979-.862-2.372-1.063a1.328 1.328 0 00-.853-.134 74.05 74.05 0 018.78-22.694l.388-.372-.434.643c.199-.034.364-.083.364-.083s.601-.099 1.654.177c1.363.362 3.072-.734 3.072-.734s1.297-.776 1.895-2.047l.535-1.489s.434-1.44 1.645-1.898c0 0 .47-.253 1.235-.262.762-.007.584.524.584.524s-.084.347-.872 1.353c-.786 1.003-.999 1.772-.999 1.772s-.473 1.068.287 1.417c0 0 .358.209 1.397-.135 1.041-.345 4.49-1.25 6.597-1.571l.015-.003-.003.006c-.395 1.123-.899 2.88-.7 3.865.303 1.498 1.721 1.498 1.721 1.498s.29.002.718-.079l.15.049s.144.039.242.046c.098.006.21-.001.342-.022.264-.041.597-.143 1.036-.365.079-.04.127-.041.19-.061.507.476.648 1.859.648 2.147 0 .391-.01 2.558-1.516 3.619 0 0-.611.463-1.468.463-.86 0-1.418-.25-1.418-.25s-1.462-.404-2.363.122c-.898.53-1.972 1.628-2.821 3.216-.847 1.588-1.552 4.422-1.514 6.512.03 1.646.254 3.203.419 4.266 0 0-3.416.894-7.26.872zm122.234-28.447c4.64 6.581 8.374 14.076 10.705 21.941-.059.005-.112 0-.174.013-.57.115-.624.537-1.504.679-.882.142-1.9.451-2.895 1.952-.996 1.498 0 3.366 0 3.366s.534.876.792 1.328c.255.453 1.588 3.281.058 5.345 0 0-.82.952-2.269 1.273-1.28.282-.954-1.209-1.085-2.007 0 0-.191-3.379-1.84-5.315-1.45-1.698-4.084 1.317-5.395 2.321-1.222.931-4.797 4.606-9.932 7.292l-.19-2.461s-.124-1.32-.841-3.378c-1.455-4.187-2.888-6.107-2.888-6.107s-.88-1.952-2.926-1.952c-1.979 0-2.127 1.803-2.127 1.803s-.468 1.43-1.226 1.873c-.739.428-2.928 1.699-4.087.439-1.401-1.52-2.167-3.298-2.317-4.996-.148-1.7.55-2.39.55-2.39s.145-.442 2.399-.442c2.527 0 2.993-.774 2.993-.774s.482-.442.443-1.428c-.043-.985-.425-3.103-1.161-4.447-.485-.882-1.574-2.281-2.504-3.353l-1.437-.259v-.003l.153.398 1.284-.146a53.802 53.802 0 003.396-1.386c2.678-1.2 3.954-2.203 5.179-2.899 0 0 2.699-1.659 4.292-1.614 0 0 .372-.013.406.475.035.487.153 1.205.321 1.623a4.8 4.8 0 004.06 3.034c2.965.338 4.231-1.654 4.231-1.654s1.013-1.555-.737-3.402c0 0-1.426-1.525-1.47-1.642 0 0-.156-.229.247-.344.381-.11 4.228-1.188 6.031-1.949l.387-.183.378-.14c.253-.126.527-.301.7-.484zm-47.603 8.123c1.043-.011 1.77.076 1.77.076s1.219.132 1.015.953c-.208.822-.896 2.196-.923 2.903-.031.702.014 1.519 1.394 2.092 1.383.572 3.369.396 3.369.396s2.058-.103 5.426-1.188a243.632 243.632 0 006.829-2.33c1.598-.906-.191-.541-.232-.658l.232.658.003.016c2.953 2.884 3.491 6.396 3.491 6.396s.398 1.384-.422 1.489c-.713.091-2.381.107-2.381.107s-.633.062-1.663.271c-1.029.209-1.684 1.3-1.831 2.056-.144.755-.588 2.83 1.162 6.085 1.745 3.253 3.955 3.107 3.955 3.107 1.918-.168 2.509-.506 3.626-1.261 1.084-.736 1.579-2.369 1.641-2.683.066-.316.212-.631.462-.631.256 0 .169.001.758-.082.592-.083 1.036.334 1.519 1.322.315.632 1.999 3.399 2.486 5.037.484 1.635.909 3.27.947 4.74.019.577.098 1.239.19 1.826-2.466 1.225-8.059 3.929-11.705 5.2 0 0-2.791 1.128-3.925 1.158 0 0-.252.009-.052-.265.198-.274.413-.476.755-1.091.343-.619.963-2.011.963-3.448 0-1.435-1.665-2.842-3.986-2.591-2.32.247-4.537.89-7.209 1.915-2.669 1.025-4.971 3.2-5.279 5.001-.311 1.802 1.645 2.842 1.645 2.842s2.207 1.113 2.488 1.715c.28.601.073 1.16.073 1.16s-.193.601-1.164 1.155c-.967.558-3.601 1.909-3.601 1.909s-3.279 1.802-8.266 2.239c0 0-4.547.384-7.163.515a1.485 1.485 0 01-.097.006c.056-1.666-.017-3.149-.19-4.456v-.003a17.978 17.978 0 00-.474-2.382v-.003a13.861 13.861 0 00-.321-1.017v-.003a11.35 11.35 0 00-.37-.908v-.003a9.648 9.648 0 00-.409-.801c-1.197-2.095-3.151-3.202-4.115-3.67a4.102 4.102 0 00-.929-.296 7.867 7.867 0 00-1.217-.152 7.746 7.746 0 00-1.608.103c-.331.054-.663.11-.957.217l-.003.003a7.237 7.237 0 00-.935.402l-.003.003a3.181 3.181 0 00-.618.42c-.102.091-.18.2-.266.302-.056.067-.124.124-.177.198l-.003.006a8 8 0 00-.394.627l-.004.006c-.278.477-.589.701-.828.804-.24.105-.41.089-.41.089s-2.121.065-2.809-3.159c-.479-2.258-.345-3.754-.092-4.684.063-.231.132-.427.202-.591l.003-.003c.07-.164.14-.296.202-.399l.003-.003c.124-.206.212-.294.214-.296l.003-.003s.062-.071.162-.164c.174-.161.532-.392 1.128-.573.223-.068.446-.136.743-.177 1.566-.213 2.572.17 3.772.466 1.11.277 1.979.164 3.29-.426.105-.047.194-.074.305-.128.375-.182.697-.392.963-.64.133-.123.255-.256.361-.399l.003-.003c.211-.285.362-.611.462-.983.149-.563.174-1.23.061-2.032-.292-2.07-.371-2.556-2.207-8.836 4.021-.552 6.761-1.028 11.628-2.153 0 0 4.52-.798 5.463-2.446.547-.963 1.538-2.28-.064-3.606 0 0-.19-.236-1.18-.46-.991-.224-1.749-.374-2.583-.969-.836-.597-.82-1.288-.82-1.288s-.07-.659 1.284-1.419c0 0 1.266-.922 3.779-1.715 1.257-.395 2.613-.503 3.655-.514zm-66.943 27.107c-.027 1.35-.228 4.207-1.657 4.876 0 0-.484.253-1.293-.353-.809-.606-1.682-.63-2.036-.642a2.111 2.111 0 00-.599.097c-.616.18-1.494.66-1.916 1.843-.606 1.696-.558 3.983-.431 5.33.127 1.348 1.355 3.487 2.836 3.487 0 0 .668.207 1.517-.664.844-.868 1.34-.944 1.718-.932.379.013 1.112.401 1.592 4.219.457 3.62.808 6.689.774 9.984.357.433.611.953.927 1.465 1.208-.134 3.149-.345 5.385-.585 3.759-.401 6.285-.806 8.621-.457 2.338.348 3.09 2.169 3.09 2.169s.161.463-.376.804c-.519.332-1.113.812-1.409 1.319-.296.512-.611 1.582.238 3.015.851 1.427 3.183 2.357 5.17 2.12 1.985-.233 4.96-.994 6.722-1.45 1.913-.499 3.604-1.438 3.824-2.933.219-1.495-2.281-3.399-2.281-3.399s-1.208-.906-1.354-1.112c-.148-.206.147-.295.147-.295s1.411-.338 2.018-.612c.6-.282 2.263-.956 4.985-1.804 2.723-.85 8.34-1.848 8.34-1.848s3.099-.493 6.966-.804l.863-.206-.85.203c-.011.364-.025.735-.04 1.123-.213 5.743 1.073 8.69 1.073 8.69.73 1.581 1.519 2.71 2.592 3.436 1.069.724 2.531.231 3.002 0 .47-.237 1.775-.833 2.889-1.538 1.113-.706 1.074-1.004 2.421-2.242 1.348-1.234 3.087-.896 3.087-.896s1.65.043 2.593 1.944c.944 1.9.751 4.609.51 5.592-.235.982-.663 1.624-1.583 1.452a28.334 28.334 0 00-2.999-.344c-.558-.02-2.127-.073-3.555.299-1.395.363-3.282 1.366-5.078 4.273-1.396 2.25-.709 4.462-.388 5.336.251.685.943 1.635 1.55 2.808l1.125.375-.121-.436-1.004.068c-1.908.229-5.135.687-8.318 1.452-3.899.946-7.619 1.703-10.265 3.403 0 0-1.981 1.31-.841 2.585 1.138 1.277 2.326 1.825 2.326 1.825s.703.307.691.496c-.013.246-.024.458-.547.759 0 0-2.072 1.209-6.108 1.276-4.035.065-5.813.028-6.997-1.033-.978-.875.245-2.732.245-2.732s.49-.907 0-2.153c-.491-1.241-3.299-1.264-3.299-1.264l-3.888-.198c-4.602-.12-10.679-.631-13.383-.966l-.049-.009v-.003c-.027-.037-.051-.077-.077-.113 0 0-2.785-5.003-2.491-6.84 0 0 .099-1.23 1.843-1.761 1.215-.372 1.057.805 4.628 1.447 0 0 3.078.824 3.883-1.404.801-2.23-.844-5.026-.844-5.026s-2.155-3.934-4.824-4.084c-1.412-.079-1.027.867-3.158 1.371 0 0-2.843.272-3.744-1.426-1.092-2.056-1.548-4.398-1.51-5.96.032-1.482.08-1.599.177-2.032.067-.305.285-.866.377-1.675 0 0 1.127-1.572-1.102-1.569-.481.058-1.057.113-1.653.159-1.505.105-3.685-.085-6.395-.884-2.713-.803-4.405-2.274-4.647-3.158-.17-.612.052-1.477.052-1.477s.506-1.95.186-3.558c-.327-1.604-.864-2.863-2.424-3.801-1.558-.936-2.442-.774-2.442-.774s-1.397-.214-1.345 2.142c.055 2.357.351 3.344.351 3.344s.268.83-.162.938c-.428.107-1.1-.533-1.1-.533s-1.066-.976-1.938-1.962l-.153-1.23v-.006a75.212 75.212 0 01.623-21.217l.407-.908c.304.066.581.171.581.171s1.688.907 2.442 1.063c.754.155 1.301-.096 1.792-.433.783-.54 1.699-1.662 2.081-2.726.341-.957.416-3.545.416-3.545l.006.021s-.002-.624-.018-.767c-.018-.145-.109-.82.306-1.161.413-.346.681-.514 1.699-.539 1.011-.025 1.318.564 1.318.564s.345.479.345.792c0 .311-.101.505-.101.505s-.551.927-.742 1.383c-.194.455-.947 1.96-.728 3.225.22 1.263 2.201 1.852 2.201 1.852s1.578.37 3.827.04l4.648-.746c.118 1.683.257 4.98.237 6.085zm44.069-12.308c.002.008.762 3.039 1.342 5.001.576 1.965.833 3.906.92 4.31.086.406.066 1.128-.471 1.556-.534.429-1.842.794-2.118.835-.279.043-.798-.063-1.483-.298-.687-.235-1.37-.278-1.37-.278s-1.649-.279-3.405.256c-1.757.532-3.087 2.323-3.194 4.566-.106 2.241-.086 3.377.794 5.36.878 1.986 2.464 3.117 3.663 3.138 1.201.02 2.183-.597 2.87-1.557.682-.963.877-1.112.877-1.112.815-.447 2.892-.642 3.944-.255 1.052.382 2.982 1.589 4.047 3.968.861 1.923 1.131 4.073 1.085 7.944l.862.664.022-.449-.893-.212c-2.438.201-5.264.533-5.264.533s-6.379.903-12.221 2.698c-4.961 1.523-5.903 2.364-5.903 2.364s-1.059.881-.178 2.15c0 0 .507.798 1.532 1.599 1.018.803 1.84 1.567 1.724 1.956-.119.391-.431.566-.431.566s-1.428 1.267-7.276 2.245c0 0-3.763.724-4.921-.408-1.157-1.135-.648-1.895-.648-1.895s.078-.255.923-.78c0 0 1.412-.882.96-2.558-.451-1.681-3.164-3.77-6.096-3.752 0 0-3.425.008-12.188 1.127 0 0-.011 0-.039.006.003-.382-.006-.789-.031-1.225-.135-2.459-.315-6.252-.648-8.461-.331-2.209-.943-5.625-2.962-5.726 0 0-.998-.077-2.43 1.31-1.315 1.268-2.503-1.05-2.568-2.464-.079-1.661.195-3.338.608-4.14.412-.801 1.55-.84 1.764-.822.217.019.824.252 1.55.701.725.451 1.724.454 2.314-.134.587-.584 1.409-1.27 1.745-3.85.334-2.58.333-5.254.019-8.458l-.006-.016a67.547 67.547 0 015.325-.758c3.458-.338 7.117-.388 8.654-.195 0 0 .72.091.602.347-.092.202-.626.615-.626.615s-.201.119-.973.987c-.771.868-.997 1.712-1.03 2.461-.035.748.769 2.957 3.592 3.549 2.827.588 6.062-.506 6.062-.506s1.829-.42 3.708-2.089c.054-.044.076-.07.15-.137.095-.088.19-.162.284-.256.093-.093.137-.189.214-.284a1.61 1.61 0 00.058-.079c1.55-2.008-.254-4.239-.254-4.239s-.328-.451-.962-.655c0 0-.277-.075-.117-.253.092-.102.287-.401.691-.71.291-.182.677-.391 1.345-.63l.016-.003c1.496-.385 5.921-1.777 16.437-3.162l.003-.006zm81.029.085l.162.174.547.694a74.6 74.6 0 012.519 19.25c0 1.59-.061 3.167-.159 4.733l-.541.908.312.764c-.309.478-.558.844-1.116 1.761-1.884 3.091-2.179 5.589-2.179 5.589s-.179.97-.08 1.535c.092.526.28.765.288.919.013.155-.11 1.422-.755 2.629-.65 1.207-1.214 1.526-1.214 1.526s-1.125.809-1.281.234c-.155-.577-.108-1.067-.052-1.431.054-.368.431-2.338.376-3.07-.053-.732-.712-.143-.712-.143s-.155.176-.443.542c-.29.367-1.915 2.426-2.535 3.149-1.47 1.716-2.805 2.947-6.382 5.821-.011.004-.021.015-.028.021l-.015.024c-.312-.516-.631-.897-.801-1.118-.422-.54-1.187-.3-2.125-2.558-1.076-2.582-1.203-4.721-1.119-6.043.085-1.32.401-1.826 1.012-2.391.611-.567 3.308-.313 3.308-.313s1.321.271 2.507-1.682c1.176-1.951 1.091-5.143.712-6.734-.379-1.594-.924-2.979-3.115-3.21-2.192-.23-3.179 2.455-3.179 2.455s-.443 1.027-.908 1.617c-.463.585-1.724.417-1.724.417-.549-.062-1.223.145-1.877-1.197-.65-1.34-2.149-4.867-2.149-4.867a20.663 20.663 0 01-1.02-3.046l-1.08-.441-.126 1.087c.883 3.08 2.732 6.964 3.497 8.553.779 1.616 2.529 1.78 3.791 1.468 1.264-.317 1.681-1.01 2.378-2.522.696-1.508 1.073-1.615 1.073-1.615s.278-.397 1.562-.249c1.285.146 1.559 1.047 1.559 1.047s.737 1.74.59 3.567c-.145 1.822-.547 2.645-.969 3.296-.422.65-2.613.438-2.613.438s-3.77-.419-4.106 4.094c-.334 4.511 1.177 7.636 1.177 7.636.55 1.195 1.118 1.826 1.58 2.162.464.333.905.777.905.777s.08.07.193.219h-.003c-2.687 2.169-3.481 2.872-5.622 4.38 0 0-2.444 1.816-5.117 3.253-2.68 1.434-5.824 1.264-5.824 1.264s-.855-.092-.44-.707c.411-.615.941-2.111 1.147-2.872.208-.763.616-2.696-.942-3.311-1.558-.615-4.488.29-4.488.29s-6.73 1.786-9.473 4.787c-2.664 2.917-.425 4.216-.425 4.216s1.046.726 2.061 1.084c.957.339.763.642.525.819 0 0-3.005 1.908-6.554 2.924 0 0-4.856 1.485-9.577 1.788-4.684.302-6.666.42-6.673.421l.003-.004c-.506-.989-1.03-1.876-1.03-1.876s-.122-.175-.275-.478v-.003a6.367 6.367 0 01-.248-.548v-.003a6.633 6.633 0 01-.238-.707v-.003a5.924 5.924 0 01-.169-.831v-.003a4.766 4.766 0 01.135-1.904v-.003a4.43 4.43 0 01.428-.999v-.003a7.92 7.92 0 01.617-.914v-.003a8.17 8.17 0 013.033-2.391l.003-.003c.259-.117.413-.164.416-.165 0 0 2.231-.492 4.457.022 1.056.241 1.846.157 2.375.015.263-.07.46-.152.593-.219l.003-.003c.128-.066.199-.116.199-.116s.078-.036.205-.128l.003-.003c.127-.093.298-.24.483-.469.063-.079.13-.182.195-.28.03-.045.06-.079.089-.128.093-.156.186-.336.272-.539l.003-.007c.027-.063.048-.147.074-.216.057-.153.115-.302.165-.481.029-.108.05-.242.076-.359.036-.165.076-.318.104-.503l.003-.006c.145-.959.176-2.228-.018-3.487v-.007a9.556 9.556 0 00-.275-1.242v-.003c-.482-1.628-1.439-3.054-3.152-3.524-1.717-.47-3.029-.257-3.913.07-.44.163-.773.352-.997.503l-.003.003c-.22.149-.336.259-.336.259v.003c-.002.001-.462.504-.997 1.048l-.003.003c-.535.543-1.144 1.124-1.443 1.273-.6.298-1.522.828-1.522.828s-1.287.77-2.161.963c-.578.129-2.657-2.623-2.871-4.736v-.004c-.099-.974-.248-1.859-.354-3-.002-.017-.002-.04-.003-.057-.104-1.13-.165-2.507-.095-4.475v-.024l-.003-.003a90.274 90.274 0 011.846-.089c5.311-.191 7.943-.821 10.766-1.452 2.823-.63 6.794-2.929 7.383-3.372.589-.437 1.824-.98 2.072-2.9.25-1.918-2.026-3.195-2.026-3.195s-1.813-.953-2.195-1.376c-.381-.426-.028-.835-.028-.835s1.026-2.2 4.308-3.487c3.278-1.292 5.484-1.639 6.865-1.788 1.386-.147 1.855.349 2.045.585.191.232.19.72.031 1.218-.152.456-.661 1.536-.96 2.065-.293.527-.775 1.802-.468 2.403.31.6 1.251.88 2.47.661 1.221-.221 4.443-1.129 7.267-2.303 2.825-1.173 7.544-3.472 7.544-3.472l.034-.018.351-.509.861-.119c1.515-.832 4.108-2.356 5.959-3.913 2.784-2.331 5.501-4.778 6.194-5.391.691-.618 1.327-1.114 1.944-1.085.617.031 1.091.468 1.47 2.123.384 1.656.455 3.02.633 3.826.174.804.424 1.74 1.382 1.931.957.191 2.248-.641 2.733-1.054.49-.409 1.369-1.744 1.311-3.53 0 0 .102-2.377-1.131-4.633 0 0-.519-.908-.709-1.157-.131-.175-.234-.355-.016-.78.221-.424.693-1.215 1.575-1.712.669-.379 1.309-.469 1.678-.587 0 0 .413-.097.932-.384l-.189-.613zm-125.19 42.008c-.251 1.009-.276 2.022-.033 3.807.239 1.793 1.205 5.511 2.607 6.481 1.862 1.291 3.079 1.269 4.335 1.173 1.252-.099 2.119-1.057 2.119-1.057s.491-.504 1.017-.35c.53.155 2.002.979 3.06 3.088 1.061 2.11 1.295 4.431-.47 4.846-1.765.406-4.803-1.252-4.803-1.252s-1.727-.958-3.136.098c-1.414 1.056-1.452 2.676-.746 4.669.388 1.093 1.163 2.872 2.25 4.724l1.055.442-.104-.14-.969-.302c-1.694-.327-4.822-.989-6.059-1.605-1.129-.563-1.734-.462-1.584-1.633.15-1.136-1.122-2.72-1.122-2.72s-1.764-1.906-3.353-3.091c-1.59-1.188-2.265-.835-2.265-.835s-.72.382-.074 1.919c.649 1.541 1.278 2.081 1.278 2.081s.312.323.135.411c-.176.089-.721-.32-1.174-.704-.198-.163-1.114-1.027-1.917-1.772-.311-.487-.647-.956-.947-1.45l-.004-.006-.449-.759-.003-.003a74.125 74.125 0 01-9.507-26.739c.338.397.72.841 1.336 1.474 1.612 1.661 2.121.616 2.121.616s.377-1.045-.079-2.942c-.457-1.904-.377-3.03.483-3.001.859.029 3.357.535 4.136 2.595 0 0 .323.962.027 2.193-.297 1.234-.241 2.327-.027 3.399.215 1.073 1.128 2.086 2.176 2.918 1.05.833 4.085 2.275 7.04 2.461 2.955.187 3.866.035 3.866.035-.062.295-.137.621-.216.931zm128.003-14.312c-1.791 17.73-9.781 33.629-21.793 45.51.009-.154.685-.762.685-.762s.871-.926 1.436-1.666c.567-.738.205-.694.205-.694s-.276-.071-1.467.682a252.102 252.102 0 01-2.033 1.273s-2.561 1.461-4.188 2.403l-.055.031c.292-.454.598-.893.908-1.316v-.003c.934-1.273 1.914-2.39 2.705-3.268 1.283-1.427 2.822-3.74 2.822-3.74s.951-1.622.99-2.379v-.006a.479.479 0 00-.046-.259v-.003c-.193-.343-1.046.026-2.506 1.111-1.147.855-2.029 1.385-2.776 1.764-.366.157-.728.282-1.055.317-1.536.172-1.472-1.402-1.369-2.093.104-.696.465-2.29 1.58-2.921 1.115-.631 2.675-.607 3.769-.755 1.098-.148 1.599-.46 1.599-.46s1.792-1.135 2.972-3.043c1.182-1.911 2.235-4.997 2.356-8.059.046-1.127-.106-2.003-.339-2.692h.006c2.94-2.332 5.753-5.291 5.753-5.291s1.868-1.867 2.807-3.49c.884-1.523.039 1.316.039 1.316s-.474 2.243.288 3.076c.605.659 2.323-1.176 2.323-1.176s1.022-1.167 1.434-3.052c.606-2.778.275-3.332.275-3.332s-.365-.576-.138-1.261c.223-.658 1.617-4.229 2.813-5.762zm-16.618 18.817l-.198.243.171.716c.312.85.538 2.196.214 4.176-.698 4.257-1.917 5.622-1.917 5.622s-1.52 2.117-3.286 2.33c-1.773.209-3.712.146-5.478 2.099-1.963 2.163-1.559 4.949-1.559 4.949s.17 1.701 2.005 1.24c1.828-.464 3.702-1.866 5.114-2.982 1.408-1.113.545.378.545.378-1.242 2.411-3.602 4.827-3.602 4.827s-.822.714-2.632 3.253c-.47.659-.843 1.227-1.167 1.739-1.854.999-4.47 2.317-6.215 3.031-2.123.869-3.212 1.06-3.023.783.187-.276.684-.683.684-.683s.597-.59.597-1.188c0 0 .186-.866-2.388-.328-2.571.534-4.894 1.793-4.894 1.793s-3.826 1.752-2.922 2.797c0 0 .172.276.941.52.773.248-1.363.899-1.363.899-2.033.664-3.591.968-5.564 1.373-2.356.484-3.843.815-4.998 1.07l-.003-.013.009-.003c-.369-1.387-1.133-2.6-1.599-3.323-.093-.144-.246-.407-.302-.496v-.003a1.912 1.912 0 00-.428-.491 1.824 1.824 0 00-.633-.316c-.543-.162-1.317-.18-2.497.015-2.314.385-5.035 1.538-5.035 1.538s-.702.37-1.666.704c-.964.334-2.189.632-3.237.493-.788-.104-1.342-.467-1.725-.914a3.067 3.067 0 01-.327-.466v-.003a3.503 3.503 0 01-.226-.484v-.003a3.916 3.916 0 01-.144-.463v-.003a2.932 2.932 0 01-.088-.719c.006-.164.038-.322.098-.475v-.003c.06-.153.152-.3.275-.439.247-.28.627-.53 1.174-.743 1.093-.43 3.663-1.005 7.41-1.197 2.34-.12 3.761-1.117 4.499-1.846.444-.438.642-.777.642-.777.184-.264.422-.653.538-1.096v-.003c.116-.443.111-.94-.195-1.426l-.003-.003a2.308 2.308 0 00-.413-.478l-.003-.003a3.746 3.746 0 00-.651-.454l-.003-.003a20.24 20.24 0 00-1.232-.639l-.004-.004c-.313-.148-.547-.242-.745-.326l-.004-.003a4.363 4.363 0 01-1.161-.666c-.505-.386-1.03-.813-1.483-1.306a5.618 5.618 0 01-.611-.789l-.003-.003c-.093-.149-.151-.319-.226-.479-.068-.144-.157-.278-.208-.432v-.003c-.007-.023-.022-.054-.031-.079-.038-.112-.079-.237-.125-.351l-.006-.003-.105-.495c-1.458-.581-.741-.062.126.498 1.089-.089 2.495-.19 3.754-.253 2.517-.121 6.456-.697 8.743-1.197 2.29-.506 5.753-1.568 8.315-2.887 2.563-1.324 2.687-2.251 2.687-2.251s.488-.702-.581-1.474c-1.069-.776-1.541-.566-2.488-1.523-.945-.958.825-2.4.825-2.4s.912-1.274 5.979-3.219c5.063-1.944 5.92-1.295 6.178-1.082.261.214.292.912.184 1.383-.104.473-.733 2.155-1.07 3.04-.338.88-.472 2.084.899 2.373 1.37.287 3.292-.011 5.095-.655 4.301-1.532 5.585-3.403 12.69-8.541.018-.011.032-.023.046-.03l.03-.965zm-118.477 13.045s.198-.074.887.444c.687.517 2.227 1.593 2.99 2.522.762.922.715 1.748.715 1.748s-.153.834.672 1.734c.823.894 2.578 2.539 8.713 3.481.037.006.051.008.088.012l.119-.831-.155.094.045.734c.732 1.108 1.572 2.193 2.498 3.122 0 0 3.664 4.04 5.704 6.6 0 0 .122.235-.232.025-.354-.217-1.885-.921-2.709-.841-.825.08-.669.585-.669.585s.355 1.857 5.964 4.986c0 0 2.021 1.13 3.295 1.13 0 0 .412.058.92-.509.515-.564.668-.504 1.021-.387.353.114.823.368 2.59 1.639 1.766 1.269 5.199 3.221 6.431 4.045.392.26.619.444.786.606a106.367 106.367 0 01-6.563-.728 76.328 76.328 0 01-2.44-.99c-.27-.164-.368-.24-.663-.417-.769-.466-3.081-1.347-3.081-1.347l-.245-.088a75.302 75.302 0 01-28.105-24.436c.095.077.165.15.266.228 2.303 1.796 2.317 1.081 2.317 1.081s.092-.593-.44-1.245c-.534-.654-1.39-2.034-1.177-2.54.214-.501.458-.457.458-.457zm65.397 6.786c.59 1.422 1.04 2.206 1.935 3.179.965 1.045 2.487 1.855 4.286 2.541 1.802.684.984 1.9.984 1.9-1.029 2.218-4.092 2.307-4.992 2.412-.898.106-2.782.276-4.542.661-1.758.386-3.407.62-4.393 1.752-.983 1.131-.597 2.303-.019 3.542.577 1.237 2.12 1.898 4.24 1.815 2.121-.083 3.497-.702 4.781-1.258 1.285-.557 3.511-1.199 4.176-1.389.663-.191 1.565-.574 2.229.387.718 1.039 1.478 2.515 1.825 3.631.021-.005.042-.006.064-.009 0 0-1.803.434-4.799 1.593-2.997 1.158-8.881 2.113-8.881 2.113s-3.777.435-4.127.929c-.348.491.263.741.263.741s.539.326 2.486.417c0 0 .67 0 .7.055.025.059.066.102-.352.234-.425.131-1.269.464-4.13.823-2.878.364-2.818-.098-2.818-.098s-.015-.114.116-.32c.129-.198.012-.549-.437-.795 0 0-.621-.404-2.718-.387-2.093.014-6.264.026-10.161-.204-.09-.005-.193-.015-.284-.021l-.004-.003.242.012c-.242-.219-.552-.415-.923-.612-1.04-.548-5.548-3.517-6.942-4.456-1.392-.938-3.827-2.519-4.901-2.19-.823.255-.706.585-1.195.825-.492.233-1.023.077-2.238-.569-1.216-.642-2.117-1.074-4.49-3.317-1.851-1.755 2.372-.177 2.372-.177s.921.388.51-.569c-.411-.957-2.491-3.457-4.45-5.47-1.588-1.626-2.491-2.757-3.623-4.398l-.73-.223.745.229c5.35.768 8.26.831 8.26.831s7.003.244 8.896.244c1.891 0 1.537.987 1.537.987s-.105.531-.333.956c-.23.425-.779 2.022-.214 2.872 0 0 .87 2.117 6.515 2.266 0 0 4.94.395 8.388-1.02 3.448-1.413.336-3.372.336-3.372s-1.179-.711-1.678-1.093c-.458-.348-.274-.715-.181-.96.09-.24.442-.531.838-.728.395-.198 1.841-.971 7.975-2.552 6.132-1.584 9.795-1.751 9.795-1.751s.03-.004.061-.006zm49.467 4.644c.058.02-.007.159-.367.555-.959 1.056-1.44 1.492-1.44 1.492s-.795.798-.721 1.097a75.3 75.3 0 01-10.333 8.26c.216-.253.402-.52.312-.591-.19-.147-.929.378-.929.378s-.602.478-1.159.737l-.085.039.03-.009-.045.018.015-.009c-.037.014-.073.019-.11.031-.141.049-.283.101-.395.094-.073-.005-.116-.029-.137-.067-.062-.114.086-.354.275-.591.253-.315.578-.624.578-.624s1.346-1.508 2.632-1.739c.321-.058.576-.123.788-.192.637-.209.887-.476 1.361-.838.632-.483.736-1.008 2.023-3.338.047-.085.097-.171.144-.259l.003-.003c1.642-.914 2.224-1.196 2.614-1.425 1.759-1.043 3.856-2.317 4.408-2.751 0 0 .441-.298.538-.265zm-8.556 5.059c-.036.057.283-.785.25-.731-.819 1.321-1.192 2.12-1.192 2.12s-.418.817-.462 1.28c-.04.463-.376.399-.376.399s-.666 0-1.601.365c-.097.03-.083.013-.217.058 0 0-.107.06-.144.079a6.716 6.716 0 00-1.107.676c-.055.037-.086.052-.143.092a5.517 5.517 0 00-.12.094c-.262.213-.442.388-.666.585-.188.164-.395.337-.556.487-.272.254-.472.451-.667.652-.07.072-.119.115-.18.18-.061.065-.162.163-.214.219-.035.043-.067.089-.101.134-.095.111-.309.347-.309.347s-.632.838-.021.838c.61 0 2.04-.736 2.589-1.219.547-.484.275-.082.275-.082-.175.196-.417.412-.633.622a74.755 74.755 0 01-21.398 9.271c-.795-.05-1.379-.155-1.657-.192-.641-.086-1.158-.213-1.308-.533-.149-.318.709-.301.709-.301s2.504-.276 4.821-1.021c2.315-.749 2.869-1.455 2.782-1.989-.085-.532-1.259-.491-2.654-.042-1.392.45-3.472 1.111-3.962 1.218a2.327 2.327 0 01-.571.037c-.079-.004-.163-.001-.233-.016a.877.877 0 01-.155-.045c-.021-.009-.043-.017-.062-.028a.461.461 0 01-.18-.158l-.003-.003c-.023-.042-.04-.095-.061-.144-.017-.039-.039-.072-.052-.115a.954.954 0 01-.043-.317c.008-.23.105-.49.373-.768.135-.139.239-.273.321-.396.081-.122.139-.232.18-.325.084-.188.101-.305.101-.305.011-.051.008-.104.016-.155.053-.33.061-.674.015-1.027.1-.021.153-.03.153-.03s3.426-.799 4.866-1.042c1.437-.249 4.69-.944 6.077-1.611 1.38-.665 2.076-1.19 2.238-1.593.159-.403-.584-.637-.584-.637s-.872-.204-.755-.505c.115-.304.436-.564 1.804-1.173 1.366-.609 3.079-1.273 4.796-1.693 1.716-.418 1.091.289 1.091.289s-1.03 1.042-1.164 1.447c-.13.406.045.422.177.493.131.074.96.043 1.522-.1.57-.145 5.148-1.883 7.939-3.476.07-.038.14-.08.205-.118l.251-.092zm-30.221 10.24c.143.972-.156 1.299-.376 1.66-.235.384-.878.878-.556 1.755.321.874 2.503.595 3.766.213a72.117 72.117 0 003.173-1.027c.835-.296 1.07.125 1.07.125s.363.257-.856.899c-1.222.64-3.474.938-4.543 1.066-1.073.129-.751-.064-2.357.49-1.608.557-.104 1.048-.104 1.048a14.55 14.55 0 002.376.408 75.536 75.536 0 01-17.244 1.992c-3.02 0-5.994-.188-8.921-.533.163-.13-.33-.329-.33-.329s-1.333-.628-4.295-.862c0 0-1.193-.081-2.234.018-.072.007-.14-.007-.211-.006a74.745 74.745 0 01-2.177-.502c-.381-.138-1.162-.45-.868-.838a.693.693 0 00.095-.743c1.64.103 3.803.213 3.803.213s4.425.165 6.847-.027c1.09-.092.752.475.752.475s-.316.523.309.783c0 0 1.146.65 4.97.231 3.825-.423 4.665-1.276 4.665-1.276s.444-.409-.522-.591c-.76-.147-.759-.073-1.746-.173-.989-.1-1.484-.307-.828-.482.655-.172 1.745-.259 1.745-.259s3.342-.462 6.044-1.16c0 0 2.881-.677 5.741-1.678a48.966 48.966 0 012.809-.887l.003-.003zm-41.357 4.097c1.94.251 4.375.531 5.209.615a1.35 1.35 0 01-.128.454c-.152.35.148.573.449.725a74.94 74.94 0 01-5.53-1.794zm12.096 3.168c.471-.017.869-.008 1.339.088.94.195 1.903.432 1.999.512.038.03-.062.035-.149.042a75.116 75.116 0 01-3.764-.621c.173-.009.423-.016.575-.021z" fill="#231F20"/><path d="M240.625 167.369h.174c-.238.713-1.173 1.69-1.588 2.345-.232.368-.375.848-.705 1.113.056.063-.004.004.059.059.131.077 1.209-.206 1.413-.35.122.023.113.017.178.058.063.104-.715 1.468-.884 1.643v.059c.291-.034.746-.083.942-.237.57-.443.699-1.388 1.116-1.994-.02-.097-.039-.195-.06-.29-.33-.059-1.013.03-1.294.233h-.058c.136-.701 1.291-1.995 1.704-2.58.675-.958 1.31-1.88 2-2.815.362-.49.87-.921 1.236-1.405.41-.544.846-1.26 1.411-1.64v-.117h-.235c-.277.2-1.004.323-1.35.524.048.2.028.15.175.234-.206.572-.889.997-1.237 1.468-.551.741-1.165 1.434-1.705 2.169-.183.243-.305.624-.529.819-.353.308-1.358.274-1.762.587h-.119c.083-.492 1.348-2.062 1.705-2.403v-.059c-.607.084-1.076.404-1.47.701.065.134.055.108.178.177-.216.353-.537.615-.766.938-.293.407-.453.892-.764 1.29.021.06.042.114.059.175.375-.032 1.941-.527 2.176-.702zm51.709 7.918c.294.098.589.195.886.292.237.003.486-.003.643-.059-.014-.969-.542-1.353-.882-1.993-.168-.325-.26-.774-.528-.997.103-.358 1.078-.456 1.469-.586.955-.313 2.039-.625 3.002-.938.452-.147.989-.114 1.355-.35.214.023.324.043.411.175.212.314.387 2.47.232 3.107-.591 2.464-1.332 4.389-2.881 5.864v.057c.574-.092.847-.646 1.234-.936 1.563-1.176 2.621-2.921 3.179-5.102.327-1.282-.207-2.538.294-3.633h-.058c-.108-.278-1.608-.819-2.06-.822-.244.262-.595.616-.943.763-.534.225-1.246.161-1.704.467-.427-.036-.751-.845-.47-1.172-.015-.134-.012-.166-.059-.234-.356-.283-1.263-.254-1.884-.234-.198.185-.374.222-.469.53h-.058c-.031.113.027.074.058.116.039.023.243-.011.354.059.666.069.651.838 1.001 1.231-.04.102-.015.059-.063.118-.23.183-1.933.672-2.294.763-.275.069-.615-.1-.822-.12-.5-.041-.941.237-1.236.411.159.232.646.175.824.409.625.828.904 1.894 1.469 2.814zm11.703-.825c.275.138.275.492.414.762.275.549.649 1.215.823 1.819v.468c.136.373.589.421.887.645.232-.032.315-.091.466-.175-.099-1.116-.782-2.042-1.176-2.932-.12-.279-.309-.67-.351-.938-.031-.161.091-.25 0-.409-.075-.182-.11-.126-.234-.235-.087-.06-.047-.024 0-.116.104-.213.316-.425.41-.646.198-.463.19-.853.589-1.112-.06-.608-.947-.677-1.649-.645-.082.062-.232.095-.356.114.073.153.121.184.295.233.171 1.72-1.038 3.296-1.826 4.338-.309.413-.825.675-1.115 1.117h-.06v.056c.784-.127 2.486-1.742 2.883-2.344zm-70.478 14.597c-.12.025-.113.014-.174.058-.428.219-1.149 2.113-2.001 1.584-.434.003-.475-.082-.708-.237.03-.557.98-1.575 1.358-1.817.046-.894.278-1.854.175-2.694-.061-.021-.119-.042-.175-.058-.209-.068-.372.249-.531.409-.431.431-.964.884-1.295 1.406-.501-.005-2.103-.02-2.414.176h-.177c.148-.379 1.279-1.624.942-2.169-.02-.061-.037-.119-.06-.178-1.073.003-2.367 1.907-2.706 2.696-.171.395-.171.849-.41 1.172v.06l2.411-.295c.305-.065.725.077.942-.058h.823c.137-.175.274-.353.412-.527.491-.517 1.142-1.04 1.529-1.639h.177v.816c-.451.405-1.15 1.03-1.353 1.642v.468c-.302 1.304.331 1.969 1.472 1.877.743-.69 1.968-1.256 1.823-2.636-.063-.051-.005.008-.06-.056zm-6.822-1.055h-.355c.162-.646.798-1.385 1.589-1.407v.292l-.823 1.056c-.168-.003-.32-.003-.411.059zm126.72.292c-.244-.6-.437-1.069-.706-1.582-.445-.85-.912-2.095-2.177-2.111-.314.265-.644.477-.825.878-1.156 2.611 1.22 5.552 2.294 6.978.38.502.828 1.055 1.412 1.345-.135 2.039-1.884 2.686-3.764 1.877-1.337-.571-2.403-1.832-3.237-2.931-.281-.369-.717-.678-1-1.057-.261-.354-.45-.751-.764-1.056v-.058h-.117c.162.631.526 1.208.764 1.76.995 2.279 2.259 3.873 4.178 5.216.906.634 2.41 1.636 3.707.704 2.269-1.627 1.164-7.687.235-9.963zm-.174 2.817c-.155.148-.8-.621-.943-.763-.657-.657-1.976-1.809-1.234-2.932h.293c.577.597 1.109 1.167 1.472 1.991.192.443.226 1.192.468 1.584-.035.103-.01.059-.056.12zm-39.007 11.721v-.585c.266-1.187.204-2.615.467-3.811.361-1.611-.147-3.182 1.475-3.576.031-.157.082-.219 0-.352-.039-.1-.013-.058-.06-.118-.064-.045-.056-.035-.175-.057-.451.329-1.679.552-2.293.702-.464.112-.948.015-1.295.234l-.177.059c.019.117.039.236.06.351.67.218 1.289-.046 1.589.528.193.373.167 1.714.058 2.228-.373 1.723-.214 3.69-.59 5.392-.128.589.035 1.735-.234 2.168v.118c-.358-.17-.59-.631-.823-.937-.525-.692-1.301-1.245-1.826-1.934-.317-.416-.649-.914-1.059-1.234.055-1.127.385-2.311.648-3.339.195-.773.201-1.489.588-2.053.22-.322.751-.526 1.116-.704-.003-.148-.006-.216-.059-.293-.019-.06-.034-.117-.055-.177-.808.12-1.492.505-2.238.704-.675.182-1.354.136-1.885.409.016.135.015.166.059.234.021.058.039.118.06.175 2.066-.116 1.753 1.004 1.354 2.58-.123.483-.041 1.149-.294 1.523v.117h-.06c-.422-.641-1.06-1.262-1.586-1.817l-.647-.585c-.155-.203-.238-.463-.413-.646.037-.648.565-.814 1.06-.996-.022-.271-.077-.305-.176-.47-1.533.224-2.865 1.082-4.588 1.172v.061h-.06c.006.148.006.216.06.292v.117c.337.058.838-.08 1.235.059.635.222 1.205.96 1.587 1.467.577.76 1.481 1.406 2.058 2.167.305.406.645.939 1.06 1.233-.057 1.031-.341 2.115-.589 3.049-.128.478-.052 1.089-.293 1.463-.037.103-.013.058-.061.119-.559-1.064-1.641-1.874-2.352-2.815-1.363-1.807-2.88-3.435-4.294-5.216 0-.248.015-.397.119-.528.11-.339.535-.656.94-.705.022-.178.05-.2-.058-.352-.021-.057-.039-.114-.061-.175-1.194.182-2.26.736-3.41 1.058-.596.166-1.378.084-1.824.408-.06.02-.119.039-.177.06.033.225.091.26.177.41.47-.007.959-.136 1.411 0 1.179.357 2.026 1.685 2.706 2.581.297.394.76.715 1.06 1.112 1.259 1.673 2.685 3.18 3.94 4.867.488.655 1.145 1.222 1.585 1.932.267-.006.322-.037.47-.117.318-1.376.495-2.765.886-4.163.177-.64.4-1.396.469-2.11.487.174.88.9 1.177 1.291.922 1.216 2.22 2.225 3.059 3.515.245-.01.271-.038.412-.115.258-1.989.513-3.983.767-5.975zM221.5 212.857c-.019 3.655-.211 9.288 2.649 10.083 1.04.286 1.616-.401 1.941-.881 1.169-1.733.841-5.105-.295-6.563-.504.05-1.227 1.244-1.469 1.638-.122-.023-.112-.016-.177-.059-.136-.061-.127-.098-.237-.175-.089-1.382.189-2.669.237-3.986 1.552.151 2.886 1.031 4.471 1.112-.002-.274 0-.643.114-.817-.013-.137-.01-.166-.059-.237-.216-.171-1.411-.454-1.764-.467v-.059h-.059c.217-1.74-.277-3.085-1.472-3.577-.668-.118-1.334-.237-2.002-.354-.34-.123-.507-.394-.764-.585-.086-.563-.198-1.194.237-1.524-.032-.211-.048-.249-.177-.353v-.058h-.06a4.237 4.237 0 00-.468 1.174c-.348 1.456.459 2.693 1.351 2.989.591.097 1.178.196 1.767.292.467.181.673.562.997.882-.013.758-.743.841-1.353.644-.951-.308-1.964-.523-2.939-.877-.256-.095-.495-.252-.825-.295-.041.371-.081.742-.119 1.113.823.253 1.649.508 2.471.763-.034 2.071-.854 4.554.177 6.152.125.031.212.055.294.119 1.16-.08 1.402-1.008 2-1.642.509 1.215.128 3.338-.998 3.634-.484.332-1.194-.097-1.47-.351-.964-.887-1.167-2.238-1.527-3.751-.124-.509.049-1.544-.176-1.936.009-.599.137-1.68-.178-1.991v-.058h-.118v.001zm141.312 9.851c-.212-.987.081-2.19-.119-3.107v-.938c-.144-.671-.087-1.564-.232-2.225-.284-1.306-.035-2.853-.53-3.929a3.776 3.776 0 00-.998-.118c-.15.154-.263.234-.237.412.124.532.814.64 1.001 1.173.019.255.039.508.06.761.194.832.165 1.906.351 2.756v.704c.095.428.24 1.534.118 1.877-.206.607-.869 1.155-1.293 1.582-1.121 1.118-2.436 2.541-4.415 2.754-.038.101-.013.058-.059.118.033.732.705.587 1.179.88l.351-.062c.181-.109.284-.358.41-.527.298-.387.839-.591 1.117-.994h.059c.003 1.785.043 3.794.06 5.508h.175c.406-1.735.374-3.867.354-5.981.775-.72 1.267-1.763 2.058-2.459v-.117h.062c.009 1.853.055 3.747.055 5.625 0 .603-.15 2.042 0 2.287v.352h.118c.161-.63.199-1.516.354-2.224v-.997c.172-.794.171-2.319.001-3.111zm-105.603 3.748c-.516-.213-1.153-.683-1.47-1.113-.947-1.296-1.988-4.367-1.294-6.681.564-1.876 1.788-3.151 3.765-3.636 1.001-.241 2.077.092 2.708.412 1.796.922 2.565 2.231 3.116 4.396.714 2.795-.196 5.361-2.059 6.213.116 1.132.235 2.265.352 3.398.66-.017 1.267-.157 1.825-.293.935-.232 1.89-.261 2.765-.469.641-.153 1.564-.021 2.058-.353.118-.25-.367-1.999-.468-2.405-.085-.337-.014-.682-.177-.936v-.117c-.135.018-.275.037-.412.058.027 1.77-1.24 1.529-2.648 1.874-.703.176-1.56.4-2.351.412l-.001-.762c.066-.123 1.098-.568 1.29-.703.686-.473 1.384-1.223 1.828-1.931.3-.484.544-1.132.703-1.702.205-.724.229-1.733.061-2.462-.118-.501-.072-.893-.235-1.348-.635-1.759-1.966-3.043-3.647-3.751-.763-.32-1.626-.332-2.528-.528-.802-.172-2.244.184-2.827.353-2.832.832-4.755 2.192-5.648 4.923-.351 1.078-.243 2.572.059 3.576.694 2.313 2.636 4.474 5.531 4.514v.058c.092.13.089.391.176.527-.036.101-.014.058-.06.119-.244.166-.6.089-.941.173-.699.176-2.953.722-3.47.236-.33-.108-.55-.54-.589-.937-.147.006-.217.006-.293.058h-.122c.217 1.134.433 2.27.647 3.402h.061v.059c2.059-.354 4.118-.707 6.176-1.056l-.881-3.226c-.167-.256-.696-.225-1-.352zm100.662-6.505c.128.323.378.859.646 1.055.128.093.196.059.296.176 1.946.167 2.737-3.175 1.943-5.099-.138-.334-.766-1.311-1.355-.938h-.119c.039-.102.012-.056.06-.119-.002-.278-.031-.37-.116-.527-.119-.019-.232-.039-.355-.056-.058.046-.014.02-.116.056.04.355.165.366.177.761-.946.864-1.756 2.935-1.061 4.691zm.644-3.107c.131-.315.394-.518.589-.763.122-.022.112-.015.174-.059.446-.002.571.084.824.235.449 1.054.514 2.895-.231 3.695-.117.126-.342.172-.471.292-1.23-.093-1.329-2.333-.885-3.4zm-27.292 23.086c-.66-.406-.752-2.482-.999-3.399-.486-1.8-.718-3.687-1.235-5.511-.332-1.167-.779-2.379-.647-3.81.207-.205.343-.474.589-.645.331-.229.862-.337 1.116-.644.042-.075-.026-.19-.059-.353-.683.107-1.307.519-1.884.763-1.178.5-2.331.794-3.528 1.289-.375.156-.766.42-1.239.47v.353c.04.019.08.038.119.059.062.066 1.536-.581 2.001-.175.53.185.463.874.765 1.292-.091.909-1.001 2.308-1.356 3.106a92.503 92.503 0 01-2.704 5.683c-.368.704-.807 1.977-1.295 2.52v.058c-.321-.438-.299-1.557-.47-2.166-.521-1.829-.857-3.838-1.412-5.626-.103-.343-.455-1.895-.233-2.227.075-.809 1.223-1.163 1.882-1.407-.018-.137-.039-.275-.058-.411-1.044.156-2.125.708-3.06 1.055-.885.329-1.695.465-2.589.763-.443.148-.945.41-1.467.468v.061h-.06c.02.166.037.253.116.351.24.158 1.532-.522 2.06-.116.826.283.852 1.594 1.116 2.461.717 2.339 1.081 4.929 1.765 7.329.171.598.579 2.496.177 2.988-.223.652-1.316.913-1.942 1.172.021.12.037.237.057.352.904-.133 1.726-.552 2.536-.829 1.581-.525 3.074-.963 4.593-1.525-.025-.136-.041-.275-.061-.408-.649.173-1.151.368-2.059.351l-.352-.295c-.1-.311-.197-.625-.296-.936.064-.74 1.014-2.106 1.353-2.757 1-1.916 1.876-3.851 2.762-5.86.338-.767 1.122-1.89 1.237-2.752.271.166.197.649.293.995.201.703.313 1.455.53 2.227.416 1.481.58 3.074.999 4.631.156.57.388 1.553.119 2.169-.265.598-1.251.994-1.884 1.229.025.125.056.27.119.353a27.76 27.76 0 001.585-.527c1.643-.695 3.328-1.421 5-2.051-.022-.137-.038-.274-.058-.409-.416.106-1.368.645-1.942.291zm27.823 4.933c-.213.193-.529.242-.764.41-.745.532-1.524 1.426-2.06 2.168-.428.595-.794 1.249-1.176 1.878-.166.276-.203.596-.412.818v.119c.513-.086.815-.418 1.178-.645.98-.604 1.857-1.157 2.763-1.815.438-.32.765-.814 1.234-1.117.043-.697.186-1.248-.115-1.758a2.915 2.915 0 00-.648-.058zm-.705 2.108c-.355.261-.699.627-1.058.882-.31.213-.681.329-.942.585h-.059c.193-.605 1.216-1.642 1.704-1.991.253-.184.569-.233.827-.414h.233c.054.069.051.066.119.119-.057.443-.534.601-.824.819zm-127.134 2.286c-.247-.742-.414-1.467-.647-2.169-.117-.364-.092-.779-.296-1.056v-.175c.4.144 1.01.129 1.355.353h.299c-.067-.305-.128-.817-.299-1.057-.179-.288-1.318-.291-1.645-.524-.464-.363-.902-1.404-1.237-1.936-.833-1.314-1.936-2.714-3.177-3.634-.659-.488-1.117-.994-2.296-.997a42.83 42.83 0 00-.41.293c-.265 1.169.206 3.33.88 3.87v.117c-.281-.076-.585-.227-.764-.411h-.06c.01.337.076.777.235.996.068.289.538.524.824.586a38.08 38.08 0 001.412 4.517c.43 1.125.649 2.195 1.115 3.28.231.528.777.913.943 1.466h.174c-.132-.495-.403-.959-.586-1.406-.541-1.297-.971-2.671-1.415-3.984-.289-.862-.488-1.698-.765-2.521-.102-.312-.072-.633-.234-.882v-.058c.399.073.639.28.942.412.686.298 1.343.411 2.06.702.524.215 1.183.513 1.825.586.072.533.377 1.925.647 2.287v.175c-.895-.612-.876-1.482-2.472-1.348a1.29 1.29 0 01-.293.234c-.146.363-.155.958 0 1.348.382.958 1.594 2.949 2.588 3.225.382.273.943-.064 1.115-.356.36.19.436 1.011.588 1.411.315.825.776 1.909 1.533 2.286v.059h.123c-.098-.662-.473-1.258-.706-1.821-.521-1.262-.928-2.594-1.356-3.868zm-1.706-4.746c-.621-.043-1.149-.288-1.647-.469-1.329-.491-2.532-.911-3.705-1.468-.142-.532-1.13-2.434-.589-3.103.038-.06.079-.12.117-.178.121-.025.115-.015.177-.058 1.813.216 3.631 2.413 4.529 3.633.351.475.64 1.183 1.118 1.525v.118zm.942 5.097l-.53.646c-.156.114-.331.162-.47.293-1.011-.031-1.046-1.016-1.47-1.641.007-.576.226-.578.468-.881.137-.009.167-.009.235-.055.913.006 1.12.413 1.649.761.086.348.141.498.118.877zm34.595 9.027c-.245-.402-.729-.507-1.06-.821-.103-.034-.06-.01-.118-.058.759-.389 1.566-.82 2.354-1.17.211.234 1.191 1.173 1.53.994.059-.018.117-.034.175-.056-.019-.332-.037-.664-.059-.997-.742-.738-1.835-1.348-3.062-1.581v.058h-.058c.139.406.592.792.946.997v.175c-.697.102-1.316.438-1.943.646-.43.137-.949.118-1.298.351h-.174c.254-.711 1.096-1.291 1.528-1.877.857-1.152 1.536-2.56 2.885-3.224-.036-.541-1.6-1.659-2.177-1.29-.144.075-.043-.032-.117.115-.088.213.203.477.117.821-.113.452-1.236 2.578-1.53 2.815v.06c-.607-.206-1.068-.774-1.646-1.056.103-.539.558-.951.824-1.348.673-1.013 1.213-1.978 2.235-2.64-.009-.779-1.272-1.593-2.119-1.579.003.36.186.561.119.878-.208.954-.647 1.919-.999 2.756-.232.541-.336 1.183-.708 1.579-.08.044-.732-.009-.883-.114-.222-.003-.444.007-.586.056v.117c.99.956 2.062 1.283 3.412 1.879-.187.97-1.169 1.618-1.647 2.346-.247 0-.446-.016-.588-.118-.135.022-.145.028-.235.059.024.864.744 1.597 1.468 1.759.486-.543 1.096-.805 1.826-1.113.667.693.859 1.685 1.117 2.812.111.493-.07 1.034.059 1.465.226.762.633.988.999 1.522h.412c.259-1.378-.376-2.714-.706-3.809l-.293-1.409zm92.948-9.905c-.355.3-.848.438-1.234.703-.596.418-1.127.977-1.704 1.408-.263.198-.646.375-.825.644-.298.445-.238 1.193-.589 1.582v.233c.47-.169.69-.715 1.06-.994.453-.342.839-.796 1.294-1.117.286-.199.611-.308.883-.527.186.034.171.054.296.12-.029 1.488-.817 2.539-1.295 3.635-.139.319-.18.816-.414 1.052-.108.113-.34.139-.467.233-.392.432-.785.86-1.18 1.293-.372.509-.543 1.189-.939 1.698-.004.168-.004.32.056.408.059.048.165.088.236.119.758-.716 1.493-1.313 2.119-2.17.977-1.34 1.466-3.033 2.177-4.63.446-1.009 1.091-2.003 1.057-3.458a.997.997 0 01-.174-.234h-.357v.002zm-4.119 9.263v.058h-.059c.102-.704.639-.898.886-1.41h.117c-.075.582-.519 1.105-.944 1.352zm-87.947.937c-.119.506 1.13 1.64 1.527 1.936.197.147.464.487.765.35.155-.012.203-.029.296-.06.069-.157.171-.355.058-.524-.031-.738-1.949-1.562-2.646-1.702zm5.648 4.509c.1.051.182.031.295-.058.206-.168.093-.462.236-.703.33-.236.915-.175 1.355-.295 1.203-.316 2.606-.293 3.94-.587.632-.137 1.677.237 2.177-.056.059-.022.12-.04.175-.062-.028-.766-1.5-1.095-2.297-.873-.353.099-.763.317-1.117.409-.275.019-.55.04-.825.056-.092-.952-.565-1.694-.587-2.691.884-.02 1.994-.135 2.585-.469-.012-.299-.067-.299-.175-.468-.674-.161-1.829-.186-2.354.172-.148-.006-.218-.006-.293-.058-.328-.415-.172-1.259-.47-1.697v-.235c.634-.136 1.669-.248 2-.703.046-.061.021-.015.058-.116-.053-.053-.076-.102-.117-.178-.921-.231-1.319-.072-2.116.236-.248-.794.051-1.422-.764-1.643.174-.301.752-.287 1.116-.409.568-.186 1.215-.438 1.707-.702.039-.101.011-.059.06-.119-.033-.296-.116-.285-.237-.468-.849-.065-1.527.017-2.001.468h-.113c.07-.437.343-1.062.586-1.405.166-.24.473-.208.589-.528h.059v-.059c-.12-.154-.236-.311-.354-.465-.276-.193-.675-.212-.939-.414-.392-.006-.766-.004-1 .117.032.226.133.368.177.528.162.606-.422 2.472-.648 2.755-.183.23-2.306.994-2.883.821-.137-.043-.535-.243-.647-.354-.047-.058-.022-.012-.059-.114.834-.782 1.435-2.522 2.588-2.873l.061-.293c-.288-.296-1.687-1.76-2.411-1.29-.06.02-.118.035-.174.056 0 .501.249.878.116 1.409-.271 1.053-.873 2.302-1.413 3.166-.324.517-1.03 1.081-1.059 1.819.961-.096 1.193-1.084 1.939-1.353.217.2.431.396.649.59.307.459.249 1.153.41 1.756.275 1.269.552 2.54.824 3.81.037.627.077 1.249.119 1.877.156.572.624 1.557 1.232 1.693zm1.878-4.452c.046.546.384 2.085.648 2.463.002.037.002.08.002.118-.709.151-1.447.356-2.236.353-.122-.837-.524-1.571-.528-2.462.902-.018 1.368-.381 2.114-.472zm-3.411-4.862c.094-.158 1.655-.406 1.826-.295.625.289.402 1.203.764 1.759-.123.289-1.556.724-1.999.761-.079-.619-.183-1.89-.591-2.225zm2.708 2.227h.059c.113.533.177 1.449.472 1.877-.211.512-1.511.47-2.002.761-.205-.123-.475-1.594-.469-1.992.449-.04 1.614-.425 1.94-.646zm-10.179 3.338c-.09.2-.079.523-.174.761-.509 1.242-.675 1.501.117 2.696.353 0 .4-.054.589-.176.233-.973.271-2.824-.532-3.281zm67.073.352c-1.717-.422-3.161.422-4.945.295-.17-.179-.298-.281-.409-.527-1.242.035-2.613 2.792-1.353 3.634.673.454 2.593.191 3.412 0 .454-.107 1.164-.206 1.529.056.493.366.405 1.751.233 2.523-.196 1.444-.394 2.89-.589 4.339-.174.877-.351 1.756-.529 2.636.902-.005 1.751-.923 2.006-1.584.147-.382.068-.744.177-1.172.31-1.23.352-2.696.646-3.985.189-.836.061-1.628.232-2.403.128-.579.213-2.513.063-3.047-.091-.298-.321-.532-.473-.765zm-80.54 17.705c-.201-.151-.34-.419-.529-.585-.704-.622-1.53-1.222-2.295-1.76-.633-.441-1.498-.705-2.062-1.228-.015-.127.183-.439.061-.763-.498-1.326-2.363-2.862-3.53-3.573-.54-.335-1.445-.488-1.94-.824-.366-.022-.556-.037-.647.233-.144.321.311.771.468.997.403.566.864 1.226 1.413 1.637.41.309.879.58 1.234.94h.177c-.229-.631-.906-.973-1.411-1.346-.462-.343-.668-.937-1.059-1.35.032-.185.052-.169.119-.293 1.625.012 2.68 1.498 3.411 2.46.327.432.849.683.883 1.409-.172 0-.321.002-.41-.059h-.177c.28.775 1.225.71 1.884 1.116 1.32.813 2.383 2.09 3.528 3.103.39.347 1.069.689 1.176 1.292-.798-.041-1.363-.484-1.875-.822-.913-.593-2.374-1.627-3.002-2.462-.119-.154-.157-.387-.295-.526-.163-.165-.389-.214-.528-.409h-.235c-.058.609.605 1.046.997 1.406 1.218 1.111 2.522 2.136 4.06 2.932.554.286 1.565.773 2.178.41-.082-.84-1.044-1.52-1.594-1.935zm36.234 3.868c-2.995-2.041-7.412-4.111-12.53-3.983-.248.154-.748.031-1.057.115-.429.113-.69.331-.999.526-.012 1.44 2.15 2.218 3.352 2.519.719.182 1.352-.153 1.767-.295.32-1.216-1.154-1.394-1.825-1.994h-.12v-.057c4.514-.177 7.892 1.079 10.472 2.992.644.477 1.383 1.16 1.707 1.933.121.289.173.761 0 .998-.236.652-1.018.594-1.766.763-1.728.393-4.097-.579-4.885-1.349-.16.281.073.712-.175.997-.262.708-1.172.524-2.002.702-1.363.295-3.498-.402-4.294-.936-.221-.151-.382-.424-.588-.587a.861.861 0 00-.061-.293c.12-.111.263-.277.352-.411 1.694-.126 2.554-.041 3.533.88-.025.119-.015.111-.061.172-.11.225-.364.252-.705.239v.111c.62.006.882-.088 1.234-.292l.06-.351c-.203-.208-.344-.486-.589-.648-.967-.629-2.961-.949-4.058-.231-.172.83.345 1.28.824 1.639.96.723 1.771 1.144 3.119 1.524.433.12.818.011 1.295.114.417.095 1.138.117 1.588 0 .75-.189 1.792-.977.94-1.878v-.055c.445.163.809.597 1.236.824 1.131.588 3.005 1.074 4.709.702.835-.184 1.699-.184 1.937-.939.266-.412-.101-.99-.232-1.225-.549-.974-1.271-1.611-2.178-2.226zm-10.884-2.697c.208.139.327.431.529.586-.004.148-.006.22-.059.295-.382 1.033-2.537.268-3.06-.12-.164-.118-.228-.367-.351-.524.022-.122.015-.116.061-.175.16-.451.62-.301.997-.528.747.003 1.422.153 1.883.466zm54.597.585h-.589c-.391.311-1.031.351-1.475.585a11 11 0 00-1.233.763c-.307.221-.484.619-.765.875.005.294.011.338.236.412.059.046.015.024.114.06.063-.07.119-.095.179-.178.049-.036-.042-.154-.06-.347.57-.569.992-.883 1.825-1.232.212-.085.664-.346.941-.175h.119c-.04.577-1.362 2.355-1.765 2.637v.173c1.082-.277 1.805-2.434 2.531-3.221-.018-.133-.015-.167-.06-.232v-.12h.002zm-4.708 4.338c-.348.311-1.2.34-1.586.644h-.06c.153-.222.431-.316.589-.526.113-.154.161-.333.293-.468-.025-.12-.015-.111-.058-.173v-.119c-1.717-.314-4.586 1.161-5.472 1.935-.23.2-.367.499-.589.706.005.165.024.249.058.35 1.043.07 2.997-.567 3.233-1.406.046-.037.016-.003 0-.059v-.117c-.712-.042-1.671.111-2.114.526h-.058c.386-.587 1.817-1.105 2.585-1.347.256-.08.818-.222 1.062-.059.055.022.114.038.174.059-.138.585-.977 1.24-1.53 1.406v.119c.904-.208 1.729-.617 2.528-.938.548-.224 1.168-.279 1.649-.587.34-.222 1.498-1.789 1.589-2.228-1.36.209-1.471 1.548-2.293 2.282zm-4.648 1.173v.176c-.111.073-.192.233-.296.292-.304.178-.71.158-1 .353-.134-.015-.164-.012-.232-.061h-.058c.159-.501 1.128-.729 1.586-.76zm-24.53 5.506c.02-.054.037-.115.058-.173l-4.352-.176c-.183.121-.464.052-.707.117-.3.086-.633.224-.881.354.038.099.011.056.059.115.354.279 2.415.295 2.825 0h.116v-.115c-.623-.197-1.759.298-2.235 0h-.061v-.061c1.565-.108 3.316-.064 4.944-.059-.159.108-.487.075-.648.176-.058.021-.116.04-.174.059v.118c.354.056.705.117 1.057.173.055.062-.006.007.058.058-.52.345-1.864.203-2.351-.058v-.117c-.264-.122-1.473.124-1.707.175-.197.044-.401-.021-.53.057-.246.014-.27.043-.411.117.033.19.052.171.119.294.379.089 1.035.098 1.468.234v-.058h.059v-.059c-.22-.085-.831-.039-1.06-.172h-.117c.196-.154 2.118-.412 2.472-.176.101.035.058.01.118.057-.314.057-.629.119-.943.174.037.1.013.058.06.117.096.065.287.065.469.059-.059.11-.08.16-.177.233.02.035.041.077.06.117a10.58 10.58 0 002.233-.233c.417-.09.928.076 1.236-.117h.471v-.118c-.801-.002-2.803-.079-3.293.235h-.174c.049-.062-.006-.006.056-.059.232-.267.701-.134 1.115-.234.655-.156 1.737-.421 2.296 0 .158.098.06-.011.058.176.159-.004.269-.004.353-.056h.413v-.12c-.537-.129-1.322-.372-1.765-.642-.257-.158-.141-.372-.587-.412zm-59.773-108.084c-.131.474-.407.878-.587 1.288-.399.909-.754 1.815-1.117 2.7-.308.734-.498 1.918-.941 2.517v.117c.618-.11 1.038-.731 1.411-1.113.917-.939 2.855-3.289 2.825-5.04a1.532 1.532 0 01-.236-.351c-.366-.087-.839-.127-1.355-.118zm.236 2.463c-.269.442-.417.877-.707 1.291-.265.377-.684.669-.942 1.056h-.061c.076-.448.319-.809.475-1.173.349-.832.589-1.657.997-2.402.226.005.399.022.53.116.141.077.041-.027.117.118.121.292-.266.757-.409.994zm104.424-17.995c-.615-.616-1.084-1.39-1.707-1.994v-.058c-.305.108-1.338 1.019-1.528 1.29-.372-.14-.582-.54-.884-.761-1.005-.753-1.95-1.729-3.703-1.699-.222.17-.546.174-.826.292-.789.34-1.61 1.019-1.94 1.817-.37.892.006 2.209.291 2.873.583 1.339 1.535 2.469 2.354 3.576.68.911 1.445 1.855 2.706 2.169 1.422.353 2.115-1.31 2.648-1.938.551-.644 1.758-.798 2.177-1.64.155-.306.051-.911-.058-1.172-.267-.631-1.586-2.403-2.119-2.754.039-.354.201-.366.351-.586.369.179.504.697.766.997.336.382.812.586 1.176.936.562.004.9-.139 1.175-.41h.061c-.143-.393-.66-.664-.94-.938zm-3.353 6.33c-1.039.245-1.555-.434-2.117-.997-1.392-1.385-2.334-3.101-3.414-4.806-.37-.586-1.316-1.68-.824-2.521h.234c.297.443.801.751 1.119 1.173.879 1.162 1.954 2.176 2.824 3.341.535.718 1.128 1.392 1.646 2.109.265.369.47.837.827 1.113-.064.267-.179.391-.295.588zm.88-4.161c.476.65 1.123 1.019 1.117 2.167-.181.172-.233.332-.529.409-.06.047-.017.022-.118.061-.831-1.381-2.031-2.535-2.997-3.812-.315-.418-.805-.757-1.118-1.172-.539-.711-1.179-1.28-1.767-1.933-.169-.194-.25-.381-.467-.529.051-.128.048-.085.116-.175.997.009 1.477.679 2.058 1.116 1.439 1.074 2.647 2.408 3.705 3.868z" fill="#231F20"/></g></svg>