<svg width="416" height="416" fill="none" xmlns="http://www.w3.org/2000/svg"><path d="M75.4 173.133c0-.568-.208-30.799-.772-31.084 0-.713-2.277-.969-2.933-1.063-8.407-1.2-11.577-.357-22.671-1.029a24.744 24.744 0 00-3.091-.162.362.362 0 00-.517-.002.361.361 0 00-.095.164 291.17 291.17 0 00-6.088 32.24.683.683 0 00.612.861.685.685 0 00.386-.087c1.83.378 11.303.765 12.982.832 9.36.399 17.567.322 17.36.322 3.363 0 4.386.146 4.575-.516a.603.603 0 00.252-.476zm-34.721-1.417c2.454-16.789 4.097-23 5.25-30.954 3.696 1.31 14.69.576 21.806 1.127 4.676.416 4.666.774 6.032.774a51.706 51.706 0 00-.096 5.475c0 2.03.258 22.387.29 24.479-12.707.439-32.954-.911-33.282-.901zm78.624-55.338c-3.073.054-4.87 3.478-7.312 3.06-1.248-.191-1.643-1.577-1.643-2.673.183-1.42.204-2.857.065-4.283a3.494 3.494 0 00-2.347-2.738 3.492 3.492 0 00-3.515.804c-1.16.807-2.094 1.901-3.188 2.771a17.365 17.365 0 01-3.64 2.481 1.971 1.971 0 01-2.182-.715 1.95 1.95 0 01-.331-.741 9.336 9.336 0 01.258-4.414c.653-4.576-1.213-5.753-3.77-4.992a13.83 13.83 0 00-5.99 4.605c-.773.903-1.805 2.449-3.157 2.449-1.579 0-1.772-2.028-1.514-3.156a27.484 27.484 0 014.16-8.505c.258-.45-.323-.805-.676-.514a15.548 15.548 0 00-4.441 7.095 6.903 6.903 0 00-.416 4.254 3.198 3.198 0 002.546 2.288c3.349.416 4.992-4.826 8.954-6.7a4.739 4.739 0 011.74-.547c.804-.064 1.062.451 1.191 1.159.568 2.612-1.593 5.616.194 8.407a3.334 3.334 0 002.93 1.643 8.149 8.149 0 003.898-2.03 31.016 31.016 0 003.349-2.835c.869-.805 2.159-1.834 3.447-1.319 1.16.483 1.248 1.997 1.191 3.06a10.518 10.518 0 00.065 4.252 3.331 3.331 0 003.047 2.408 6.676 6.676 0 004.123-1.739c1.065-.773 2.674-1.932 4.026-1.094a4.13 4.13 0 011.484 3.091.563.563 0 101.127 0c.127-2.286-1.088-4.875-3.673-4.832z" fill="#D4B982"/><path d="M114.608 129.746a106.278 106.278 0 00-12.788 10.113c.624-3.8 1.192-7.6 1.805-11.402.096-.547-.451-1.159-.998-.772a198.023 198.023 0 00-13.497 10.049c1.708-4.445 3.415-8.89 5.154-13.335a.623.623 0 00-.903-.707c-4.798 3.606-9.568 7.213-14.364 10.789 1.641-3.285 3.318-6.602 4.765-9.984.227-.55-.513-1.04-.805-.485-2.221 3.931-4.122 8.054-6.12 12.112-.224.482.29 1.192.806.805 4.863-3.672 9.748-7.323 14.656-10.952-1.804 4.577-3.607 9.115-5.409 13.689-.257.678.677 1.04 1.128.645a176.831 176.831 0 0113.978-10.629l-1.933 11.789a.726.726 0 001.192.708 118.511 118.511 0 0112.688-10.371c-.678 3.833-1.321 7.667-1.999 11.467-.16.9 1.225 1.287 1.385.387.774-4.381 1.548-8.795 2.288-13.175a.686.686 0 00-.645-.841.69.69 0 00-.384.1z" fill="#231F20"/><path d="M125.197 88.485c.832.031.832-1.248 0-1.32-2.061-.13-42.066-1.933-46.384-1.997a51.626 51.626 0 00-7.184.112c-.291.058-.624.154-.705.497a39.72 39.72 0 00-.678 5.154c-.16 1.664-4.51 43.645-4.992 47.51-.096.869 1.248.869 1.354 0 .611-5.188 5.364-47.054 5.185-52.181 8.761.002 53.631 2.233 53.404 2.225zm11.372 45.288a.568.568 0 00-1.096 0 8.847 8.847 0 00-.161 2.446c-.054 1.342-.141 5.2-.226 7.345-.096 3.157-.354 6.346-.16 9.503a17.15 17.15 0 00-2.255-.064c-17.537 0-47.347-3.072-56.24-2.288a.39.39 0 00-.386.387.386.386 0 00.387.387c1.932.193 3.864.16 5.797.224 1.9.065 48.894 2.513 49.99 2.513 1.065.07 2.134.026 3.189-.129a.462.462 0 00.348-.421.48.48 0 00-.025-.191c.451-3.222.416-6.539.547-9.792.064-1.644.291-7.345.291-7.345a8.818 8.818 0 000-2.575z" fill="#D4B982"/><path d="M101.296 94.153a1.335 1.335 0 00.332 1.072 1.345 1.345 0 001.028.447 1.369 1.369 0 10-1.36-1.519z" fill="#D4B982"/><path d="M208.751 50.702c-.012-.576-.832-.47-1.768-.466-9.961.034-79.052 1.419-79.273 1.433a.52.52 0 00-.903.385c0 .208-.767 78.381-.74 78.144-.096.676.805.998 1.096.513.998.073 55.79 1.063 58.203.936.74 0 .74-.938.162-.871-6.298 0-14.323-.189-58.205-.805 0-4.541.645 6.017.645-77.561 69.651-.913 79.125-.974 79.978-1.248-.293 5.058 1.758 61.661 1.803 63.615.017.678 1.128.709 1.063 0-.054-.231-2.03-62.692-2.061-64.075z" fill="#231F20"/><path d="M147.455 71.606a22.67 22.67 0 00-3.157 7.345 50.546 50.546 0 00-.778 23.834 47.1 47.1 0 001.872 6.635c.201.701.494 1.373.869 1.997a.195.195 0 00.11.085.193.193 0 00.236-.107.193.193 0 00.008-.138 50.988 50.988 0 01-.74-35.302 17.259 17.259 0 011.932-4.122c.098-.162-.191-.387-.352-.227zm26.67 9.93c-5.535-3.582-12.445-.58-13.046 4.832-.031.289.452.353.516.064a7.683 7.683 0 0111.369-4.832 12.262 12.262 0 016.124 12.135 13.264 13.264 0 01-7.731 10.727 14.587 14.587 0 01-13.464-1.04 16.902 16.902 0 01-7.634-12.982c-.033-.193-.322-.224-.322 0a17.146 17.146 0 006.475 12.564 15.182 15.182 0 0014.144 2.35 14.04 14.04 0 005.829-4.068 14.04 14.04 0 003.092-6.4 13.004 13.004 0 00-5.352-13.35zm13.27-15.791a.227.227 0 00-.451 0c-.031 4.16-.225 29.44-.129 31.824 0 .32.451.289.482 0 .362-3.86.572-23.149.098-31.824zm6.024 15.525a.26.26 0 00-.258-.258.257.257 0 00-.257.258c.019 6.897.385 13.79 1.094 20.65.033.291.515.227.515-.064-.128-3.5-.865-8.077-1.094-20.586zm39.333 33.754a.449.449 0 00-.098-.547l-.064-.065a.587.587 0 00-.643-.064c-15.723 1.416-29.915 1.167-46.577 2.608a.548.548 0 00-.354.934c0 .208 3.06 52.876 3.06 52.664a.391.391 0 00.274.363.398.398 0 00.435-.137c.208-.016 48.139-2.862 47.929-2.835a.553.553 0 00.514-.516c-.035-1.824-3.632-42.361-4.476-52.405zm-37.529 25.769c1.478-.329 2.845-.154 7.28-.514 4.919-.389 5.705-.927 7.246-.678a.455.455 0 01.276.641.456.456 0 01-.178.191 11.069 11.069 0 01-3.576.741 54.68 54.68 0 01-11.08.484c-.42-.058-.389-.769.032-.865zm14.815 6.573c-1.114.501-1.476.22-10.66.965a14.224 14.224 0 01-3.511.033c-.416-.098-.322-.613 0-.742a14.315 14.315 0 013.511-.483c1.159-.096 8.277-.645 8.89-.676a5.799 5.799 0 011.664.031.469.469 0 01.234.148.477.477 0 01-.128.724zm.612-13.755c-1.33.313-2.692.465-4.058.451-11.428.832-11.207.969-11.856.741a.391.391 0 01-.098-.71c.549-.32.992-.289 3.898-.578 2.113-.208 5.346-.416 8.181-.614a14.644 14.644 0 013.929-.031c.424.042.36.645.004.741zm-.624-11.365a1.361 1.361 0 01-1.228-1.352 1.36 1.36 0 111.232 1.352h-.004zm109.077 19.61c-.233-2.448-1.728-17.324-2.221-19.905-.098-.514-.903-.385-.903.128.056 3.88 1.385 15.915 2.03 23.192a9.178 9.178 0 00.578 3.222.48.48 0 00.87-.129c.206-.823.158-1.1-.354-6.508zm72.796-58.171c-.549-2.673-1.096-5.38-1.901-7.987a.436.436 0 00-.461-.291.43.43 0 00-.184.064 33.933 33.933 0 00-6.086.451c-1.966.227-50.476 5.637-54.887 6.346-.549.096-.416.999.129.965 6.864-.222 37.679-3.952 54.144-5.892a50.936 50.936 0 006.635-1.096 135.95 135.95 0 002.449 13.881c.967 4.768 12.078 56.015 12.852 58.623a.523.523 0 00.639.339.52.52 0 00.359-.628c-.601-2.926.481 3.588-13.688-64.775z" fill="#D4B982"/><path d="M359.913 109.583a20.152 20.152 0 003.536-.452c.644-.16.451-1.04-.163-1.096a17.166 17.166 0 00-3.155.162c-9.329.849-19.804 1.972-28.958 3.705a.414.414 0 00-.271.441.415.415 0 00.369.364c8.349-.87 27.45-3.012 28.642-3.124zm6.217 7.6c-1.11.003-2.215.154-3.284.452-15.706 2.855-25.62 3.777-30.537 4.671-.482.096-.353.832.098.832a287.806 287.806 0 0030.276-4.089 13.421 13.421 0 003.744-.872c.443-.284.152-.95-.297-.994zm-.547 11.307a252.134 252.134 0 00-31.76 4.445c-.387.096-.322.774.096.709 4.124-.416 8.183-1.063 12.272-1.643 15.184-2.117 17.732-1.939 19.519-2.448a.54.54 0 00.232-.928.534.534 0 00-.359-.135zm-38.33-89.19c0-.37-.501-.612-.709-.612-1.151 0-4.67-.356-8.528-.482-1.558-.07-65.88-2.326-67.48-2.193h-.353a.339.339 0 100 .678h.031a.352.352 0 00-.258.258c-1.456 6.519-6.29 77.077-6.635 78.818-.032.387.353.482.611.353.393.198 65.385 4.899 79.456 4.736a.652.652 0 00.597-.391.658.658 0 00-.112-.705c.459-4.559 3.473-63.392 3.38-80.46zm-1.579 15.752c-.146 5.25-2.964 61.617-3.06 64.419-4.669-.16-75.597-4.251-78.303-4.187 0-.056.251-1.443.387-3.06.694-5.555 6.054-74.037 6.054-74.245 0-1.055.055-1.182-.224-1.321 9.092.79 74.048 2.964 75.597 2.964-.189 5.185-.307 10.298-.451 15.43z" fill="#D4B982"/><path d="M277.713 83.236c0 .355.51.416.676.16a7.48 7.48 0 00.516-2.673c.385-2.89 1.269-11.925 1.61-20.068a.593.593 0 00-.547-.547c-21.193-1.146-22.009-1.017-22.096-.484-.387 5.928-1.225 20.679-1.192 22.129 0 1.162 1.248.86 2.769.933 18.647.608 17.345.68 18.264.55zm-3.575-1c-1.386-.036-15.236-.417-15.59-.417-.289 0-.805.098-.967-.16-.033-.058.784-21.385.934-21.776 4.189.529 6.121.444 20.937 1.29-.578 13.069-1.837 20.257-1.837 21.258a17.623 17.623 0 00-3.471-.196h-.006z" fill="#D4B982"/><path d="M300.098 71.8a128.92 128.92 0 00-18.809-1.456c-.483 0-.452.676 0 .74 6.055.485 12.078.903 18.096 1.741a176.047 176.047 0 01-.805 19.294 430.816 430.816 0 01-23.226-.742 41.53 41.53 0 00.065-5.315c-.031-.416-.707-.578-.772-.095a52.592 52.592 0 00-.484 5.959.622.622 0 00.58.578c8.112.451 16.203.71 24.319.743a.545.545 0 00.547-.55 171.53 171.53 0 00.832-20.323.46.46 0 00-.051-.36.47.47 0 00-.292-.214zm13.787 11.95a5.07 5.07 0 00-2.384-.417 33.296 33.296 0 00-7.311.323c-.387.064-.289.707.095.707 1.872-.038 5.562-.035 7.216.098a6.08 6.08 0 002.288-.034c.291-.162.353-.514.096-.678zm-.514 4.413a6.244 6.244 0 00-2.224-.291 29.748 29.748 0 00-6.571.516c-.416.064-.353.805.096.773 6.55-.582 7.417.082 8.601-.258a.402.402 0 00.304-.336.396.396 0 00-.206-.404zm-8.73-27.477c.052.53.487.946.903.624.499-.428.17-.562 0-5.606a.6.6 0 00-.457-.544.593.593 0 00-.253-.003 24.802 24.802 0 00-4.316.87.37.37 0 00-.137.16c-.03.065-.04.137-.03.208a.374.374 0 00.263.308c.375.054.756.043 1.127-.031a63.016 63.016 0 002.288-.292 31.522 31.522 0 00-5.799 4.576 30.414 30.414 0 00-5.023 6.604.391.391 0 00.145.532.388.388 0 00.531-.145 37.993 37.993 0 0110.629-10.63c0 .85.129 3.161.129 3.369zm9.439-10.098c-2.5-.14-5.007-.101-7.501.114-.416.032-.451.676 0 .676 6.153.14 6.877.335 7.336.331 1.606-.017 1.7-.907.165-1.121z" fill="#D4B982"/><path d="M360.591 182.057a16.286 16.286 0 01-.227-2.353.343.343 0 00-.531-.287.342.342 0 00-.145.191 4.724 4.724 0 00-.031 3.027c.112.337.4.759.741.645a.452.452 0 00.32-.416 2.092 2.092 0 00-.127-.807zm-17.589-14.883c-.355.256-.965.516-.965 1.04 0 .416.387.805.612 1.127.491.676 1.605 1.918 2.288 1.417a.44.44 0 00.224-.416c-.064-.581-.709-.774-1.096-1.161a5.077 5.077 0 01-.676-.869 10.452 10.452 0 004.027-4.897c.16-.384-.451-.578-.645-.289a14.896 14.896 0 01-3.769 4.048zm1.484 12.594c3.92 1.872 6.275-2.496 5.861-7.344a.642.642 0 00-.967-.547 8.98 8.98 0 01-7.28.322c-.435-.146-.68.597-.645.805.164 2.448.51 5.558 3.031 6.764zm4.605-6.346c0 2.034-.597 5.175-2.609 5.408a2.926 2.926 0 01-2.803-1.708 8.57 8.57 0 01-.868-3.704 8.01 8.01 0 006.28.004zm3.799-15.009a2.884 2.884 0 00-1.247-.416c-.346-.058-.735.393-.104.961 1.129 1.021 1.114.749 1.759 2.687.645 1.939 2.692-.911-.408-3.232zm-9.416.245a5.125 5.125 0 012.816-.707c.527-.094.612-.572.179-.859a1.825 1.825 0 00-1.04-.258 3.69 3.69 0 00-1.04.193 5.093 5.093 0 00-1.583 1.018c-.382.397-.091 1.058.668.613zm-37.995-.31c3.761-1.872 8.578-.513 10.467-1.094a.924.924 0 00.742-.774c.14-.416-.474-.509-.902-.386-2.08.592-7.179-.966-10.694 1.545-.387.356-.066.934.387.709zm3.382-2.348a8.983 8.983 0 014.316-.805c.693 0 1.835.054 1.835-.645 0-.74-.934-.482-1.417-.482-.611.031-1.225 0-1.836.064a5.947 5.947 0 00-3.22 1.223c-.258.229-.075.795.322.645z" fill="#231F20"/><path d="M374.021 137.186a3.72 3.72 0 00-1.674-3.328 3.671 3.671 0 00-3.834.131 4.342 4.342 0 00-6.279 2.964c-1.583.281-2.798 2.051-1.837 4.67a2.792 2.792 0 00-1.194 3.091 13.175 13.175 0 00-6.602-.578c-3.793.711-4.576 2.475-5.668 2.93-.537.198-1.064.424-1.578.676a5.994 5.994 0 00-2.642 3.898c-.36.36-.757.439-1.04 1.248a2.287 2.287 0 00.639 2.471 50.653 50.653 0 00-4.601 9.479 24.354 24.354 0 00-2.319 10.726 8.282 8.282 0 005.603 7.507 20.249 20.249 0 01-2.357 5.726c-5.143-7.646-15.716-10.994-26.208-6.822a22.427 22.427 0 00-7.377 4.478c-.289.287.097.772.416.545a52.44 52.44 0 016.41-3.669c9.36-4.16 19.057-1.778 24.419 4.285 1.785 2.015 1.398 2.594 4.198 3.823a24.734 24.734 0 0010.229 1.843 4.716 4.716 0 004.058-1.641.334.334 0 00.047-.193.322.322 0 00-.072-.184.326.326 0 00-.362-.108 10.615 10.615 0 01-4.024.967 22.326 22.326 0 01-8.441-1.385 18.328 18.328 0 01-2.367-1.192 13.925 13.925 0 002.271-6.186 21.781 21.781 0 0018.046-5.102c.416-.449-.16-1.223-.611-.869a24.395 24.395 0 01-8.112 4.38c-6.531 1.887-13.705 1.198-14.785-5.732a21.21 21.21 0 011.901-10.113 76.938 76.938 0 014.718-10.151c.461.173.965.195 1.439.065.379-.1.707-.277 1.385-1.094a4.913 4.913 0 003.93-1.664 4.046 4.046 0 004.251.578 4.562 4.562 0 004.67 1.772 5.401 5.401 0 002.481 3.576c-.859 4.808 1.152 5.507 1.225 5.861a7.744 7.744 0 00.514 6.032c.156.291.524.605.805.354.449-.35 1.273-.127 1.837 1a3.346 3.346 0 01-1.548 4.605c-.547.258-1.932.999-2.384.258-.416-.676-1.478-.066-1.062.612a2.263 2.263 0 002.868.676 5.755 5.755 0 002.704-1.706 4.568 4.568 0 00.958-2.3 4.57 4.57 0 00-.388-2.461 9.357 9.357 0 004.068-5.483 11.646 11.646 0 00.098-8.601 12.036 12.036 0 01-.774-1.872 15.351 15.351 0 00-1.063-3.609 3.957 3.957 0 003.254-2.577 4.125 4.125 0 002.72-2.01 4.133 4.133 0 00.308-3.369 4.159 4.159 0 00-1.267-7.228zm-20.71 57.013a.341.341 0 10.483.482c.832-.74 1.739-1.416 2.577-2.157 14.658-13.486 23.957-15.637 24.833-16.91a.436.436 0 00-.256-.645 2.418 2.418 0 00-1.483.354 85.114 85.114 0 00-24.866 17.362c-.452.482-.828 1.038-1.288 1.514z" fill="#231F20"/><path d="M316.977 163.116c-1.104-1.136-3.667.146-4.736 1.321a12.533 12.533 0 01-2.028 2.159c-.387.32.031 1.04.516.869 1.319-.48 1.872-2.184 3.349-3.091.387-.228 1.836-1 2.126-.355.289.644-.934 1.481-1.288 1.872a32.282 32.282 0 00-2.804 4.058c-.998 1.192-2.608 1.16-3.993 1.578-1.386.418-3.083 1.548-3.083 3.147a12.814 12.814 0 01-6.437-2.604 8.392 8.392 0 001.403-5.052c.034-1.545-.415-3.536.483-4.928.87-1.322 2.771-1.385 4.16-1.74a9.203 9.203 0 015.346-.514c1.506.231 4.717.909 5.863.062a.52.52 0 00.224-.577.532.532 0 00-.177-.273.531.531 0 00-.305-.115c-.419.006-.836.05-1.248.129a21.154 21.154 0 01-4.316-.451 9.732 9.732 0 00-5.508.482 10.887 10.887 0 00-4.445 1.579 5.46 5.46 0 00-1.354 4.576 14.854 14.854 0 01-.746 6.323c-.287-.241-.458-.399-.502-.416a.442.442 0 00-.488.056c-2.615 2.114-8.957 11.051-12.468 20.384a21.463 21.463 0 00-1.664 11.856 7.734 7.734 0 002.424 4.889 7.735 7.735 0 005.049 2.069 36.37 36.37 0 0014.463-.87c.578-.322.578-1.223-.098-1.158-1.604.152-2.392.557-6.055.9-2.949.231-8.809.267-11.402-1.191a6.545 6.545 0 01-2.931-4.283 18.924 18.924 0 011.248-11.371 72.22 72.22 0 018.343-15.655c1.736-2.468 2.537-3.253 3.477-4.605a10.883 10.883 0 007.696 3.832c-1.285 14.269-6.599 21.097-6.635 23.158a.371.371 0 00.547.323 5.04 5.04 0 001.321-1.835 24.95 24.95 0 001.127-2.321 57.726 57.726 0 005.026-19.937.655.655 0 00-.431-.624 3.027 3.027 0 011.365-1.664c1.316-.701 3.213-.601 4.638-1.483 1.514-.921 2.032-2.843 3.222-4.285a20.632 20.632 0 001.872-2.059 1.85 1.85 0 00-.146-2.165zm7.956 55.369a24.67 24.67 0 01.87 10.048c-.032.581.773.624.965.132a14.086 14.086 0 00-.965-10.534.479.479 0 00-.588-.199.476.476 0 00-.282.553z" fill="#231F20"/><path d="M396.537 175.935c-1.917-7.488-13.996-9.947-21.646-11.024-1.063-.161-2.126-.194-3.189-.258a.346.346 0 00-.096.676c5.93 1.146 19.652 2.81 23.061 9.277 1.902 3.744.516 8.084-1.674 11.306-6.065 8.913-18.377 13.208-25.376 22.514-4.439 5.955-5.616 11.318-14.398 21.936-3.952 4.772-8.382 8.663-11.714 12.981-1.685-2.163-5.529-3.153-10.124-4.992-14.66-5.701-20.654-8.54-24.906-8.351 2.756-7.844-1.961-14.335.909-20.606 2.191-4.876 8.528-7.374 11.024-11.44.227-.292-.295-.683-.611-.389-5.947 5.543-8.907 6.951-10.951 10.308-4.16 6.82 1.337 13.936-1.837 22.316a5.634 5.634 0 00-4.605 6.061c2.157.864 5.098-.06 10.791 1.837a13.98 13.98 0 013.896 1.872c.387.289.162 1.063-.354.87a36.3 36.3 0 00-8.407-2.642c-2.496-.416-5.059-.073-6.7-1.417l-5.121 3.383a253.925 253.925 0 00-48.572-13.24c-27.344-4.807-42.224-4.669-58.463-10.757-1.664-.61-3.12-1.702-4.603-.597-7.991-4.331-14.243-12.017-14.531-20.888-.095-3.253.416-7.118-2.19-9.568-2.344-2.188-5.591-2.119-6.989.676a17.883 17.883 0 00-1.191 4.863c-1.026 5.687-1.795 8.876-.87 11.467a16.38 16.38 0 011.61 5.123c.033 3.801-2.544 6.989-3.446 10.531a7.573 7.573 0 002.223 8.15c3.436 2.517 7.085-.884 10.887-1.664.707-.162.578-1.354-.162-1.29-3.096.258-5.906 2.819-8.47 2.353-2.804-.483-3.705-3.898-3.287-6.313.645-3.511 2.931-6.508 3.511-10.017.614-3.686-.961-5.479-1.578-7.409-.77-2.496 0-5.259.516-8.247.289-1.771.547-3.536.933-5.282.855-3.602 3.241-3.877 5.379-1.901 2.417 2.288 1.579 6.24 1.772 9.213a25.883 25.883 0 0015.105 20.985c-.597.749-1.065 1.682-1.512 2.369-1.096 1.643-2.159 3.284-3.253 4.959 5.76 1.441 14.159 4.919 29.794 7.506 15.563 2.559 21.1 1.689 28.378 2.738 4.734.673 8.987 2.737 13.561 4.089 11.087 3.201 19.585.366 41.679 7.247a256.653 256.653 0 0126.187 10.083c.612.292.161 1.288-.451 1.063-6.639-2.277-24.862-11.132-43.387-13.979-10.229-1.542-17.929-.624-27.895-4.285a39.474 39.474 0 00-13.882-3.253 188.068 188.068 0 01-28.312-3.06 146.499 146.499 0 01-24.952-6.804 40.233 40.233 0 01-6.38-3.536.774.774 0 00-.591-.08.778.778 0 00-.471.367c-2.132 4.418-5.691 9.053-7.351 12.819-4.044-4.264-12.522-4.942-14.144-10.918-.603-2.244.283-4.043-.194-7.762-.832-5.899-4.885-10.941-8.503-15.808a7.808 7.808 0 01-1.674-3.349 2.752 2.752 0 01.753-2.698 2.752 2.752 0 012.725-.651c5.117.624 8.944 7.052 11.44 9.726.416.452 1.061-.129.805-.611-1.993-3.715-6.24-8.657-10.4-10.144-5.408-1.833-8.917 2.462-5.283 7.825 2.427 3.536 6.408 7.947 8.112 13.143a17.755 17.755 0 01.676 7.794 8.326 8.326 0 002.448 6.635c3.507 3.628 8.544 4.368 12.756 7.964a5.043 5.043 0 01-.711 1.248.742.742 0 00.129.934 110.62 110.62 0 0052.728 22.806c10.381 1.393 20.423.584 31.63 5.152 4.002 1.645 5.117 2.198 40.56 20.55a70.57 70.57 0 0011.628 5.443 29.874 29.874 0 0027.121-4.38c7.696-6.032 11.567-16.935 13.237-26.541a62.234 62.234 0 012.61-11.371 8.158 8.158 0 00.475-4.928c3.003-4.031 7.049-7.644 10.701-11.82 8.763-10.126 10.997-16.455 14.849-22.256 6.556-9.882 18.816-13.847 25.898-23.257a13.688 13.688 0 002.91-11.375zM117.822 309.642a.532.532 0 00-1.063 0 55.869 55.869 0 00-.227 6.15c0 2.159 1.29 54.372 1.321 56.853a49.396 49.396 0 00.162 6.924c.064.581 1.03.547 1.127 0a32.61 32.61 0 00.225-6.152c0-12.027-1.431-62.456-1.545-63.775z" fill="#231F20"/><path d="M259.584 323.008c-.065-4.992.227 2.866.098-2.095-1.344-47.324-.527-46.785-2.03-46.284-.208.069-140.003 29.761-140.211 29.761-.709-.387-1.417-.832-2.159-1.159-1.61-.776-12.628-5.738-18.68-8.601-43.67-20.739-66.84-35.376-84.135-45.094 3.834-.516 22.772-3.093 28.347-3.898a35.68 35.68 0 005.892-1.04.556.556 0 00.396-.617.558.558 0 00-.556-.479c-.92.017-29.744 4.16-35.593 5.379a.374.374 0 00-.306.327.367.367 0 00.017.157c0 .032-.033.096-.033.129a56.495 56.495 0 00-.231 6.161c0 2.159 1.287 54.405 1.32 56.884a49.917 49.917 0 00.16 6.927c.065.578 1.04.547 1.128 0 .27-2.04.345-4.1.227-6.153 0-2.159-1.385-60.944-1.514-62.972 26.986 17.807 89.178 49.336 105.714 55.241.353.129.696.023.696-.267.225-.05 135.313-28.704 139.29-29.656-.375 3.873.12 25.03.193 27.83.564 19.816.516 29.723.516 29.343a25.78 25.78 0 00.129 3.536c.062.578 1.04.869 1.127.16.395-4.496.461-9.015.198-13.52zM111.38 235.266a75.44 75.44 0 0013.753-1.416c4.453-.759 12.952-2.288 17.328-3.415 1.275-.251 2.51-.67 3.674-1.248a.419.419 0 00.029-.693.411.411 0 00-.256-.079c-2.808.119-3.646.853-13.302 2.673-5.535 1.04-15.169 2.816-21.259 3.349-.483.056-.516.829.033.829z" fill="#231F20"/><path d="M385.682 212.397a24.286 24.286 0 00-9.05-5.443 23.798 23.798 0 00-2.546-.832c-.483-.127-.805.58-.354.807a53.61 53.61 0 019.373 5.056 11.945 11.945 0 014.736 8.112c.225 3.536-1.872 6.829-3.578 9.76-11.3 19.726-30.291 35.713-40.52 56.852a12.766 12.766 0 00-.901 2.32.57.57 0 00.096.513c-4.012 12.347-26.851 26.256-58.361 17.603a133.097 133.097 0 01-23.516-9.678c-.516-.193-.999.612-.547.965a9.14 9.14 0 002.446 1.677 113.668 113.668 0 0014.113 6.292c-2.045 2.935-10.679 19.812-12.308 23.019-6.08 12.064-11.721 24.093-17.201 36.494a.778.778 0 00.097.869 3.551 3.551 0 004.734-.193 17.795 17.795 0 003.254-5.281c27.208-53.224 27.185-52.562 27.185-52.986 14.872 4.326 30.62 4.559 44.612-1.935-7.53 20.8-16.551 42.301-24.128 58.334-1.017 2.096-2.359 4.407-.774 6.281a2.236 2.236 0 002.448.772c.999-.385 1.515-1.577 2.062-2.479 6.882-11.596 12.199-24.769 17.717-37.526 15.687-36.204 13.624-32.597 13.849-32.822a17.642 17.642 0 005.379-9.406c1.32-2.001 1.63-3.55 4.831-8.89 10.369-17.278 26.539-32.406 36.367-49.281a24.584 24.584 0 004.16-9.888 12.112 12.112 0 00-3.675-9.086zM249.65 364.564c15.392-34.711 25.517-51.736 28.211-57.937 1.19.416 2.402.832 3.615 1.209-22.98 44.72-27.845 54.463-29.445 56.894-.9 1.379-3.59 2.571-2.375-.166h-.006zm55.307 5.212c-.162.227-.356.549-.678.516-.322-.033-.643-.451-.772-.74-.416-.999.225-2.224.645-3.12 8.372-18.315 14.768-32.448 25.251-61.071a39.664 39.664 0 007.505-4.897c-7.342 14.816-23.365 56.441-31.945 69.312h-.006z" fill="#D4B982"/><path d="M335.627 285.224a6.38 6.38 0 002.159 1.321c.353.162.578-.387.353-.612a18.203 18.203 0 00-4.058-2.835c-.353-.224-.805.323-.451.581.645.515 1.327 1.023 1.997 1.545zm-22.29 10.275a26.047 26.047 0 005.637-1.803.531.531 0 00-.416-.967c-1.676.26-3.286.902-4.929 1.321-14.56 3.432-30.231.705-44.61-9.631-.356-.258-.774.323-.452.612 10.003 9.01 27.33 14.312 44.77 10.468z" fill="#D4B982"/><path d="M159.083 260.358a80.863 80.863 0 00-10.4-5.862 334.127 334.127 0 00-44.45-17.555.623.623 0 00-.759.275 16.948 16.948 0 00-3.214.588c-1.58-6.849-3.85-16.561-4.53-19.344a.574.574 0 00-.227-.549c-4.82-3.588-35.435-19.777-44.9-22.901-.402-.85-1.873.036-1.288.934 7.357 45.827 10.643 50.384 10.533 51.859a.779.779 0 00.354.643c6.054 3.255 43.548 23.612 46.931 25.415a.685.685 0 00.9-.193c6.723-.566 30.41-5.566 39.458-7.603 3.833-.869 7.667-1.77 11.5-2.673.936-.241.3-2.907.092-3.034zm-84.619-25.574a3.53 3.53 0 01-2.704-2.642c-.689-3.032 3.815-6.373 6.217-2.768a3.487 3.487 0 01-3.513 5.41zm69.285 18.874c-4.722 1.263-5.712 1.444-12.401 3.093a826.904 826.904 0 01-12.081-5.314c2.255-.612 8.528-2.353 9.439-2.611a9.828 9.828 0 002.255-.738 235.367 235.367 0 0112.79 5.57h-.002zm-14.204 3.48a1039.186 1039.186 0 01-13.208 3.091c-4.836-2.288-8.89-4.47-10.725-5.408 3.852-.637 8.266-2.018 11.918-2.931 1.226.545 9.246 4.056 12.017 5.248h-.002zm-.194-9.695c-.193.062-10.564 2.964-11.692 3.251-1.516-.676-7.666-3.536-9.214-4.249a95.904 95.904 0 0010.342-2.964c2.386.869 9.439 3.511 10.566 3.962h-.002zm-27.73-3.667a941.397 941.397 0 00-1.136-4.967c2.365-.316 2.783-.31 3.5-.416 4.429 1.56 8.826 3.055 13.256 4.617-1.495.308-9 2.355-10.468 2.771a45.119 45.119 0 00-5.152-2.005zm.191.645c1.192.578 2.352 1.16 3.536 1.772-.447.089-2.23.682-2.931.934a60.895 60.895 0 00-.605-2.713v.007zM104 254.432c-.195-.87-1.127-5.25-1.419-6.571 1.386-.322 2.802-.645 4.188-.998a337.286 337.286 0 009.114 4.316c-6.656 1.793-9.112 2.425-11.232 3.188-.064-.033-.096-.064-.16-.064a.388.388 0 00-.491.129zm1.964 8.761c-.612-2.771-1.223-5.508-1.837-8.277a70.177 70.177 0 0010.373 5.764c-1.14.264-8.037 1.691-8.532 2.513h-.004zm1.772 7.891c-.832-3.977-1.61-7.072-1.61-7.375.451.301 4.135 2.966 8.567 5.572-8.197 1.847-6.098 1.589-6.949 1.803h-.008zm8.736-2.159a4.441 4.441 0 00-.643-.416c-3.792-2.211-6.781-4.322-8.632-5.25 2.325-.295 4.239-.811 8.89-1.872 2.768 1.302 10.026 4.566 11.692 5.121-.414.061-8.252 1.722-11.311 2.417h.004zm13.143-2.768a26.346 26.346 0 00-4.285-1.872c-1.337-.56-5.994-2.563-7.44-3.287 1.352-.322 10.211-2.35 13.302-3.093 3.201 1.411 9.58 4.119 12.981 5.252-1.121.171-14.354 2.954-14.562 3h.004zm16.137-3.382a16.325 16.325 0 00-3.447-1.483c-4.609-1.872-1.071-.323-9.308-3.834 2.577-.624 11.232-2.656 12.239-3.057 1.541.821 2.055.909 7.247 3.702 1.456.778 2.868 1.61 4.349 2.352-.347.086-8.287 1.719-11.084 2.32h.004z" fill="#231F20"/><path d="M75.271 231.016c.018.017.04.028.065.031-.04 0-.04 0-.065-.031zm251.948-77.015c-3.072.662-3.723.05-3.929.772-.195.098-.195.156-1.192.709l-5.408 3.12a1.38 1.38 0 01.291 1.062 1.368 1.368 0 01-.582.935 5.104 5.104 0 01-3.511.547c-.193-.031-.385-.031-.58-.065-1.165.676-2.155 1.18-2.802 1.612-.289.194-.516.483-.832.676a.57.57 0 00-.516.71 5.068 5.068 0 001.159 2.254c.208-.517.645-.451 1.612-1.741a6.98 6.98 0 013.382-2.543 2.644 2.644 0 013.8 1.481c1.932-1.192 6.829-4.316 7.344-4.639.388-.192.729-.467.999-.805a14.104 14.104 0 001.385-3.382c.219-.447-.199-.784-.62-.703zm15.912 7.667a1.24 1.24 0 00-1.201 1.03c-.033.188-.023.382.03.565a1.075 1.075 0 001.302.772c1.444-.162 1.394-2.488-.131-2.367zm6.974 2.652a1.257 1.257 0 00-.905.445 1.251 1.251 0 00-.28.97 1.25 1.25 0 002.093.601c.211-.209.34-.486.365-.782a1.224 1.224 0 00-.374-.888 1.228 1.228 0 00-.899-.346zM166.317 55.655a1.351 1.351 0 00.333 1.071 1.34 1.34 0 001.029.447 1.37 1.37 0 10-1.362-1.518z" fill="#231F20"/><path d="M287.09 43.724a1.35 1.35 0 00.331 1.071 1.34 1.34 0 001.029.447 1.371 1.371 0 001.25-.81 1.365 1.365 0 00-.23-1.472 1.372 1.372 0 00-2.08.048 1.37 1.37 0 00-.3.716zm65.487 42.887a1.352 1.352 0 00.332 1.073 1.35 1.35 0 001.03.448 1.37 1.37 0 10-1.362-1.52z" fill="#D4B982"/></svg>