<svg width="186" height="62" fill="none" xmlns="http://www.w3.org/2000/svg"><g clip-path="url(#clip0_0_599)"><path d="M81.25 31.03h3.03v6.87c-1.8 1.45-4.31 2.19-6.74 2.19-5.34 0-9.28-3.72-9.28-8.86 0-5.14 3.94-8.86 9.33-8.86 2.88 0 5.29.96 6.92 2.81l-2.02 1.97c-1.35-1.35-2.9-1.97-4.75-1.97-3.67 0-6.25 2.49-6.25 6.06 0 3.5 2.58 6.06 6.23 6.06 1.23 0 2.44-.25 3.54-.89v-5.38h-.01zm7.8.2c0-5.1 3.94-8.86 9.28-8.86s9.28 3.74 9.28 8.86c0 5.12-3.94 8.86-9.28 8.86s-9.28-3.77-9.28-8.86zm15.34 0c0-3.52-2.58-6.06-6.06-6.06-3.47 0-6.06 2.54-6.06 6.06 0 3.52 2.58 6.06 6.06 6.06 3.47-.01 6.06-2.54 6.06-6.06zm8.41-8.62h3.2v14.52h9.01v2.71H112.8V22.61zm16.54 0h7.53c5.59 0 9.4 3.45 9.4 8.62 0 5.17-3.82 8.62-9.4 8.62h-7.53V22.61zm7.38 14.52c3.84 0 6.33-2.34 6.33-5.91 0-3.57-2.49-5.91-6.33-5.91h-4.18v11.82h4.18zm27.67.03v2.68h-12.92V22.61h12.58v2.68h-9.38v4.48h8.32v2.63h-8.32v4.75h9.72v.01zm20.67-14.55v17.23h-2.63l-9.5-11.67v11.67h-3.18V22.61h2.63l9.5 11.67V22.61h3.18zM82.01 46.26l-3.03 9.07h-1.36l-2.47-7.24-2.47 7.24h-1.39l-3.03-9.07h1.33l2.45 7.37 2.55-7.37h1.19l2.5 7.41 2.5-7.41h1.23zm17.14 7.94v1.13h-6.58v-9.07h6.4v1.13h-5.1v2.78h4.55v1.1h-4.55v2.93h5.28zm18.88-1.32c0 1.55-1.18 2.45-3.47 2.45h-4.33v-9.07h4.07c2.08 0 3.25.88 3.25 2.34 0 .98-.51 1.67-1.22 2.02 1.03.29 1.7 1.05 1.7 2.26zm-6.5-5.57v2.9h2.66c1.32 0 2.07-.49 2.07-1.45s-.75-1.45-2.07-1.45h-2.66zm5.19 5.46c0-1.05-.78-1.52-2.21-1.52h-2.98v3.02h2.98c1.44 0 2.21-.45 2.21-1.5zm9.64-2.04c0-.52.4-.88.88-.88.47 0 .85.36.85.88s-.39.89-.85.89c-.48 0-.88-.38-.88-.89zm16.75 2.33h-4.82l-1 2.27h-1.33l4.11-9.07h1.28l4.12 9.07h-1.36l-1-2.27zm-.46-1.04l-1.96-4.44-1.96 4.44h3.92zm21.31-1.28h1.24v3.54c-.91.76-2.16 1.15-3.43 1.15-2.78 0-4.83-1.96-4.83-4.64 0-2.68 2.05-4.64 4.86-4.64 1.44 0 2.66.48 3.48 1.4l-.8.8c-.75-.73-1.61-1.05-2.63-1.05-2.1 0-3.61 1.46-3.61 3.48 0 2 1.52 3.48 3.6 3.48.76 0 1.48-.17 2.12-.58v-2.94zm21.35 3.46v1.13h-6.58v-9.07h6.4v1.13h-5.1v2.78h4.55v1.1h-4.55v2.93h5.28zM1.94 59.52V14.63c0-6.99 5.67-12.66 12.66-12.66h44.88v47.74c0 5.42-4.39 9.81-9.81 9.81H1.94z" fill="#D4B982"/><path opacity=".33" d="M59.82 42.67l1.26-1.13-5.41-6.05 5.42-6.09-1.26-1.12-5.29 5.95-6.72-7.5 12.29-10.1-1.07-1.31-12.35 10.15L35.97 13.5 48.82 1.63 47.67.39 34.84 12.24 24.28.44l-1.26 1.13L33.6 13.39 20.62 25.37l-4.23-3.61L11.19.8l-1.64.41 4.63 18.66L1.53 9.06l-.55 1.38 13.91 12.25 1.61 6.49L.4 44.04l1.15 1.24 15.41-14.23 3.89 15.65L5.92 58.97l1.07 1.31L21.3 48.52l3.02 12.17 1.64-.41-3.21-12.95 10.7-8.79 9.81 8.38-11.56 13 1.26 1.12 11.58-13.03 10.08 8.6 1.1-1.29-10.05-8.58 8.87-9.98 5.28 5.91zM34.73 14.64l10.65 11.9-11.91 9.79-11.55-9.86 12.81-11.83zM17.1 24.58l2.28 1.94-1.46 1.35-.82-3.29zm5.19 20.93l-3.92-15.77 2.29-2.11 11.47 9.79-9.84 8.09zm22.09.14l-9.61-8.2 11.74-9.65 6.89 7.7-9.02 10.15z" fill="#fff"/><path d="M42.04 22.36c4.13 0 8.07 1.6 11.18 4.26.37.37.41.92.05 1.28l-2.84 2.98c-.37.37-.78.37-1.19 0-1.97-1.74-4.4-2.66-6.92-2.66-5.73 0-10.27 4.9-10.27 10.63 0 5.68 4.54 10.5 10.31 10.5 2.57 0 5.52-.78 6.44-1.15v-3.9h-4.65c-.5 0-.87-.37-.87-.83v-2.71c0-.5.37-.87.87-.87h8.8c.46 0 .83.41.83.87v10.82c0 .37-.18.6-.37.73 0 0-4.72 2.98-11.37 2.98-9.12 0-16.46-7.24-16.46-16.41 0-9.14 7.34-16.52 16.46-16.52z" fill="#fff"/><path d="M47.33 61.49H0V14.16C0 6.35 6.35 0 14.16 0h47.33v47.33c0 7.81-6.35 14.16-14.16 14.16zM3.94 57.54h43.38c5.63 0 10.22-4.58 10.22-10.22V3.94H14.16c-5.63 0-10.22 4.58-10.22 10.22v43.38z" fill="#D4B982"/></g><defs><clipPath id="clip0_0_599"><path fill="#fff" d="M0 0h185.31v61.49H0z"/></clipPath></defs></svg>